<?xml version="1.0" encoding="UTF-8"?>
<svg width="60px" height="60px" viewBox="0 0 60 60" version="1.1" xmlns="http://www.w3.org/2000/svg" xmlns:xlink="http://www.w3.org/1999/xlink">
    <!-- Generator: Sketch 49.2 (51160) - http://www.bohemiancoding.com/sketch -->
    <title>time-left</title>
    <desc>Created with Sketch.</desc>
    <defs></defs>
    <g id="Final-Designs" stroke="none" stroke-width="1" fill="none" fill-rule="evenodd">
        <g id="Desktop:-Case-Study" transform="translate(-200.000000, -17453.000000)" fill="#FFFFFF" fill-rule="nonzero">
            <g id="Conclusion" transform="translate(0.000000, 17393.000000)">
                <g id="Conclusion-Header">
                    <g id="time-left" transform="translate(200.000000, 60.000000)">
                        <path d="M35.9988412,54.4266953 C35.5049356,54.5497854 35.0013734,54.6590987 34.5015451,54.7511588 C33.1949356,54.9941202 32.3311159,56.2507725 32.5727897,57.5585408 C32.6921459,58.2019313 33.0575536,58.7378112 33.5536481,59.0876395 C34.0649356,59.4475107 34.7156652,59.61 35.3787554,59.4866524 C35.9739914,59.3761803 36.5738627,59.2462661 37.1625322,59.0993562 C38.4527897,58.7782403 39.2388412,57.4711159 38.9169528,56.1815021 C38.5958369,54.8907296 37.2898712,54.1053219 35.9988412,54.4266953 Z" id="Shape"></path>
                        <path d="M53.8051931,22.1519742 C53.9738627,22.6603004 54.2958798,23.075279 54.702618,23.3620172 C55.3057082,23.7867811 56.0948498,23.9296996 56.8479399,23.6806867 C58.110515,23.2614592 58.7945923,21.9 58.3769099,20.6380687 C58.1866094,20.0627897 57.9754506,19.4857082 57.750515,18.9238197 C57.2566094,17.6890558 55.8560086,17.087897 54.6206009,17.5818026 C53.3864807,18.0754506 52.7850644,19.4764378 53.2793562,20.711588 C53.4683691,21.1838627 53.6454077,21.6686266 53.8051931,22.1519742 Z" id="Shape"></path>
                        <path d="M43.823176,50.9887983 C43.398412,51.2692275 42.96,51.5406438 42.5183691,51.7949356 C41.3661373,52.4595708 40.9715021,53.9324034 41.6358798,55.0841202 C41.8162661,55.397382 42.0565236,55.6534764 42.3332189,55.8491845 C43.0760086,56.3718026 44.0848069,56.4500858 44.9246781,55.9662232 C45.4497425,55.6633906 45.9718455,55.3412446 46.4777253,55.0067382 C47.586824,54.2739914 47.892103,52.7800429 47.15897,51.6704292 C46.4259657,50.5604292 44.9326609,50.2555365 43.823176,50.9887983 Z" id="Shape"></path>
                        <path d="M59.8740773,28.8771245 C59.8216738,27.5481116 58.7022747,26.513691 57.3728755,26.5655794 C56.0451502,26.6179828 55.0099571,27.7377682 55.062103,29.0662661 C55.0820601,29.574206 55.0872103,30.0897425 55.0754936,30.5971674 C55.056824,31.4306009 55.4644635,32.1735193 56.0979399,32.6200429 C56.4753219,32.885794 56.9333047,33.0466094 57.4299142,33.0579399 C58.758927,33.0874249 59.8603004,32.0333047 59.8897854,30.7036481 C59.9030472,30.0973391 59.8980258,29.4830472 59.8740773,28.8771245 Z" id="Shape"></path>
                        <path d="M53.4122318,44.6544206 C52.3465236,43.8548498 50.8387983,44.0719313 50.0406438,45.1357082 C49.7349785,45.5430901 49.4130901,45.9454506 49.0834764,46.3328755 C48.222103,47.3448927 48.3437768,48.8649785 49.355794,49.7269957 C49.4134764,49.7759227 49.4718026,49.8208584 49.5323176,49.8630901 C50.538412,50.5724034 51.9366953,50.4093991 52.7501717,49.4548069 C53.1437768,48.9925751 53.5274678,48.5119313 53.8927468,48.0253648 C54.69103,46.961588 54.4749785,45.4528326 53.4122318,44.6544206 Z" id="Shape"></path>
                        <path d="M56.9517167,35.9501717 C55.6828326,35.5523176 54.3315451,36.2586695 53.9339485,37.5275536 C53.7817597,38.0123176 53.6130901,38.4993991 53.43103,38.9764378 C53.0312446,40.0265665 53.4142918,41.1820172 54.2924034,41.8012017 C54.4534764,41.9143777 54.6309013,42.0103004 54.8236481,42.083176 C56.0660086,42.5572532 57.4572103,41.9339485 57.9307725,40.691073 C58.1469528,40.1239056 58.3475536,39.5443777 58.52897,38.9680687 C58.9261803,37.698927 58.2203433,36.3480258 56.9517167,35.9501717 Z" id="Shape"></path>
                        <path d="M25.4934335,54.7727897 C23.3406438,54.3862661 21.2755365,53.7280687 19.3172961,52.8100429 C19.2941202,52.7979399 19.2733906,52.7841631 19.2490558,52.7730901 C18.7875966,52.5558798 18.3269099,52.3232189 17.8803863,52.0801288 C17.8788412,52.0783262 17.8760086,52.0771674 17.8735622,52.0761373 C17.0542918,51.6249785 16.254721,51.125794 15.4779399,50.57897 C4.15107296,42.6 1.42763948,26.8933906 9.40712446,15.5666524 C11.1422318,13.1045923 13.2419742,11.0505579 15.5828755,9.42257511 C15.6117167,9.40248927 15.6405579,9.38253219 15.6691416,9.3623176 C23.9181116,3.67854077 35.118927,3.29549356 43.8780258,9.13609442 L41.9967811,11.8542489 C41.4737768,12.6108155 41.7955365,13.1621459 42.7111159,13.0797425 L50.8828326,12.3481545 C51.7995708,12.2657511 52.3478112,11.4727468 52.1012446,10.5874249 L49.906867,2.68107296 C49.6612017,1.79472103 49.0322318,1.68862661 48.5087124,2.44506438 L46.6230901,5.16965665 C40.1951073,0.854678112 32.4853648,-0.790686695 24.8330472,0.536266094 C24.0623176,0.669656652 23.3024034,0.832918455 22.5529185,1.02296137 C22.5471245,1.02399142 22.5424893,1.02463519 22.5378541,1.02566524 C22.5088841,1.03274678 22.4795279,1.04214592 22.4513305,1.05 C15.852618,2.74454936 10.0953219,6.59317597 5.98712446,12.0843348 C5.95248927,12.1254077 5.91682403,12.1655794 5.88412017,12.2102575 C5.74751073,12.3942489 5.61193133,12.5824893 5.47918455,12.7707296 C5.262103,13.0792275 5.04811159,13.3954506 4.84339056,13.7116738 C4.81776824,13.7497854 4.79819742,13.7885408 4.77579399,13.8270386 C1.38566524,19.0803863 -0.249527897,25.1537768 0.0309012876,31.336867 C0.0315450644,31.3572103 0.0303862661,31.3776824 0.0309012876,31.3985408 C0.0580686695,32.0025322 0.105965665,32.6148927 0.170987124,33.2177253 C0.174463519,33.2566094 0.183090129,33.2934335 0.189656652,33.3323176 C0.256866953,33.9384979 0.341201717,34.5460944 0.446909871,35.1535622 C1.52124464,41.351588 4.44502146,46.9288841 8.82618026,51.2685837 C8.83635193,51.2787554 8.84690987,51.2898283 8.8572103,51.3003863 C8.86081545,51.3043777 8.86480687,51.3064378 8.86828326,51.3101717 C10.0453648,52.4711588 11.3257082,53.5449785 12.7042918,54.5159227 C16.3120172,57.0580687 20.3293133,58.7384549 24.6436481,59.5126609 C25.9527039,59.747897 27.203176,58.8764807 27.4380258,57.5680687 C27.6727468,56.2587554 26.802103,55.0072532 25.4934335,54.7727897 Z" id="Shape"></path>
                        <path d="M28.4709013,10.5834335 C27.3941202,10.5834335 26.5219313,11.4563948 26.5219313,12.5316309 L26.5219313,31.9411159 L44.2734335,41.1176395 C44.5591416,41.2655794 44.8650644,41.3352361 45.1660944,41.3352361 C45.8711588,41.3352361 46.5521459,40.9512876 46.8983691,40.2813734 C47.3921459,39.3252361 47.0184979,38.1506009 46.0623605,37.656824 L30.4176824,29.5686695 L30.4176824,12.5316309 C30.4175536,11.4563948 29.5463948,10.5834335 28.4709013,10.5834335 Z" id="Shape"></path>
                    </g>
                </g>
            </g>
        </g>
    </g>
</svg>