<?xml version="1.0" encoding="UTF-8"?>
<svg width="60px" height="59px" viewBox="0 0 60 59" version="1.1" xmlns="http://www.w3.org/2000/svg" xmlns:xlink="http://www.w3.org/1999/xlink">
    <!-- Generator: Sketch 49.2 (51160) - http://www.bohemiancoding.com/sketch -->
    <title>Con-Icon</title>
    <desc>Created with Sketch.</desc>
    <defs></defs>
    <g id="Logos/Icons" stroke="none" stroke-width="1" fill="none" fill-rule="evenodd">
        <g id="Con-Icon" fill="#85A3B6" fill-rule="nonzero">
            <path d="M36.2213325,54.0695433 C35.7623698,54.1885224 35.2944336,54.2941849 34.8299672,54.3831703 C33.615798,54.6180172 32.8130919,55.8326997 33.0376677,57.0967909 C33.1485797,57.7186933 33.4881355,58.2366758 33.9491322,58.5748205 C34.4242471,58.9226727 35.0289388,59.0797351 35.6451165,58.960507 C36.1982407,58.8537245 36.7556722,58.7281492 37.3026945,58.5861459 C38.5016686,58.2757547 39.2321085,57.0122858 38.9329931,55.7657428 C38.6345955,54.5180797 37.4210245,53.7589032 36.2213325,54.0695433 Z" id="Shape"></path>
            <path d="M53.6478709,21.4506139 C53.8042458,21.9276083 54.1027907,22.3170087 54.4798811,22.5860732 C55.039011,22.984656 55.7706308,23.1187653 56.468827,22.8851009 C57.639371,22.4917134 58.2735848,21.2141706 57.8863479,20.030021 C57.7099188,19.4902006 57.5141517,18.9486887 57.305612,18.4214335 C56.847708,17.2627768 55.5491991,16.6986717 54.4038422,17.1621343 C53.2596791,17.6253554 52.7021009,18.9399897 53.1603631,20.0990088 C53.3355985,20.5421739 53.4997325,20.9970584 53.6478709,21.4506139 Z" id="Shape"></path>
            <path d="M43.4114683,51.4204377 C43.00336,51.7156658 42.5821388,52.0014053 42.157825,52.2691167 C41.0507741,52.9688262 40.6716132,54.5193834 41.3099396,55.7318788 C41.4832526,56.0616721 41.7140892,56.3312812 41.9799348,56.5373173 C42.6935985,57.0875151 43.6628402,57.1699295 44.4697787,56.6605323 C44.9742545,56.3417186 45.475885,56.0025723 45.9619284,55.6504132 C47.0275376,54.8789978 47.3208461,53.3062103 46.6164604,52.1380398 C45.9121984,50.9694627 44.4774485,50.6484801 43.4114683,51.4204377 Z" id="Shape"></path>
            <path d="M59.976335,29.1371584 C59.9221629,27.9094015 58.7649826,26.9537922 57.3907145,27.0017273 C56.0181767,27.0501382 54.9480445,28.0846084 55.0019504,29.3118895 C55.022581,29.7811301 55.0279051,30.2573884 55.0157929,30.7261532 C54.9964932,31.4960883 55.4178911,32.1824046 56.0727481,32.5949081 C56.4628672,32.8404119 56.9363076,32.988975 57.4496782,32.9994422 C58.823547,33.0266808 59.9620932,32.0528728 59.9925733,30.8245212 C60.0062827,30.2644062 60.0010918,29.6969166 59.976335,29.1371584 Z" id="Shape"></path>
            <path d="M54.0154502,44.47233 C52.9252717,43.6896318 51.3829267,43.9021325 50.5664454,44.9434613 C50.2537616,45.3422466 49.9244821,45.7361164 49.5873,46.1153658 C48.7061481,47.1060272 48.8306158,48.5940359 49.8658704,49.4378627 C49.9248773,49.4857572 49.9845427,49.5297446 50.0464473,49.5710852 C51.0756431,50.2654304 52.5060331,50.1058659 53.3381882,49.1714176 C53.7408311,48.7189399 54.1333322,48.2484388 54.5069986,47.7721399 C55.3236116,46.7308111 55.1025992,45.2538937 54.0154502,44.47233 Z" id="Shape"></path>
            <path d="M56.4274752,36.1039344 C55.2453339,35.731104 53.9864225,36.3930287 53.6160062,37.5821042 C53.4742213,38.0363781 53.3170822,38.4928238 53.1474681,38.9398583 C52.7750126,39.9239374 53.1318741,41.006714 53.9499566,41.5869539 C54.1000184,41.6930114 54.2653143,41.782901 54.4448846,41.8511929 C55.6023154,42.2954522 56.8984124,41.7113513 57.3396012,40.5466486 C57.541003,40.0151541 57.7278905,39.4720766 57.8969049,38.9320156 C58.2669613,37.7426988 57.6093765,36.4767647 56.4274752,36.1039344 Z" id="Shape"></path>
            <path d="M25.415056,54.2589436 C23.2688807,53.8754261 21.2101185,53.2223478 19.2578949,52.311462 C19.2347901,52.2994532 19.2141242,52.2857835 19.1898642,52.2747966 C18.7298228,52.0592757 18.2705516,51.8284243 17.8253999,51.5872248 C17.8238596,51.5854362 17.8210357,51.5842864 17.8185969,51.5832644 C17.0018437,51.1356145 16.2047296,50.6403123 15.4303351,50.0977412 C4.13827007,42.1808276 1.42320437,26.5963762 9.3781723,15.3577316 C11.1079485,12.9148201 13.2012395,10.876761 15.5349483,9.26143982 C15.5637009,9.2415102 15.5924535,9.22170833 15.6209494,9.20165096 C23.8445743,3.56207965 35.0109751,3.18201159 43.7431614,8.97718723 L41.8676969,11.6742013 C41.3462996,12.4248837 41.6670706,12.9719262 42.5798369,12.8901636 L50.7264459,12.1642656 C51.6403674,12.082503 52.1869233,11.2956663 51.9411144,10.41723 L49.7534789,2.57236964 C49.5085685,1.6929113 48.8815311,1.58764203 48.3596203,2.33819661 L46.4797915,5.0415984 C40.0715588,0.760179557 32.3855045,-0.872388441 24.7566987,0.444243987 C23.9883372,0.576597101 23.2307579,0.738589136 22.4835757,0.927153998 C22.4777995,0.92817603 22.4731786,0.9288148 22.4685576,0.929836831 C22.4396767,0.9368633 22.4104106,0.94618934 22.3822999,0.953982332 C15.803862,2.63535235 10.0642552,6.4540463 5.96868029,11.9024977 C5.93415151,11.9432512 5.89859586,11.9831104 5.86599248,12.0274411 C5.72980277,12.2100015 5.59463994,12.3967778 5.46230102,12.5835541 C5.24588646,12.8896526 5.03255254,13.2034164 4.82846052,13.5171801 C4.80291692,13.5549953 4.78340624,13.5934492 4.76107164,13.6316477 C1.38135909,18.8441374 -0.248809896,24.8702923 0.0307576671,31.0052935 C0.0313994659,31.0254786 0.030244228,31.0457915 0.0307576671,31.0664876 C0.057841577,31.6657815 0.105591409,32.2733794 0.170413089,32.8715235 C0.173878802,32.9101052 0.182478907,32.9466428 0.189025254,32.9852245 C0.256029051,33.5866902 0.340104695,34.1895612 0.44548806,34.7923044 C1.51652192,40.9421251 4.43131541,46.4760439 8.79901305,50.7819915 C8.80915348,50.792084 8.81967898,50.8030709 8.82994776,50.8135467 C8.83354183,50.8175071 8.83752098,50.8195512 8.8409867,50.823256 C10.0144516,51.9752136 11.2908611,53.0406817 12.6652091,54.0040744 C16.2618497,56.5264488 20.2668026,58.1937659 24.5678815,58.9619505 C25.8729152,59.195357 27.1195453,58.3307181 27.3536735,57.0324823 C27.5876733,55.7333521 26.7197046,54.4915835 25.415056,54.2589436 Z" id="Shape"></path>
            <path d="M28.9873614,11 C27.8893695,11 27,11.880007 27,12.9639213 L27,32.53006 L45.1011768,41.7806472 C45.3925129,41.9297811 45.7044619,42 46.0114217,42 C46.7303746,42 47.4247761,41.6129527 47.7778193,40.9376316 C48.2813226,39.9737773 47.9003143,38.7896617 46.9253427,38.2918996 L30.9724908,30.1384657 L30.9724908,12.9639213 C30.9723595,11.880007 30.0840404,11 28.9873614,11 Z" id="Shape"></path>
        </g>
    </g>
</svg>