<?xml version="1.0" encoding="UTF-8"?>
<svg width="31px" height="27px" viewBox="0 0 31 27" version="1.1" xmlns="http://www.w3.org/2000/svg" xmlns:xlink="http://www.w3.org/1999/xlink">
    <!-- Generator: Sketch 49.2 (51160) - http://www.bohemiancoding.com/sketch -->
    <title>creative</title>
    <desc>Created with Sketch.</desc>
    <defs></defs>
    <g id="Final-Designs" stroke="none" stroke-width="1" fill="none" fill-rule="evenodd">
        <g id="Desktop:-Case-Study---User-Flows-and-Sitempas" transform="translate(-616.000000, -1567.000000)" fill="#000000" fill-rule="nonzero">
            <g id="Intro" transform="translate(-1.000000, 936.000000)">
                <g id="Roles/Dev/Specs" transform="translate(242.000000, 631.000000)">
                    <g id="Deliverables" transform="translate(373.000000, 0.000000)">
                        <g id="TITLE" transform="translate(2.390244, 0.000000)">
                            <g id="creative">
                                <path d="M14.9673378,5.30673317 C10.3236482,5.30947631 6.56005717,8.45860349 6.55677878,12.3441397 C6.59828021,14.8804239 8.07310839,17.2503741 10.532571,18.7331671 L10.532571,23.8154613 C10.5345828,23.8735661 10.5486649,23.930985 10.574296,23.9850374 L10.574296,24.0249377 C10.5845782,24.0455112 10.5965741,24.0655237 10.6100602,24.084788 L12.7082294,26.6982544 C12.8192476,26.8357232 13.0047001,26.9179551 13.2029682,26.9177057 L16.6721002,26.9177057 C16.8703683,26.9179551 17.0558208,26.8357232 17.166839,26.6982544 L19.2650082,24.084788 C19.2784943,24.0655237 19.2904902,24.0455112 19.3007725,24.0249377 L19.3007725,23.9850374 C19.3264035,23.930985 19.3404857,23.8735661 19.3424974,23.8154613 L19.3424974,18.7331671 C21.8020345,17.2503741 23.2767882,14.8804239 23.3182896,12.3441397 C23.3151603,8.47799252 19.587706,5.33684539 14.9673378,5.30673317 Z M16.3859863,25.9351621 L13.5486893,25.9351621 L12.2492549,24.319202 L17.6794599,24.319202 L16.3859863,25.9351621 Z M11.7306733,23.3216958 L11.7306733,22 L18.2040022,22 L18.2099629,23.3216958 L11.7306733,23.3216958 Z M18.4781948,18.0498753 L18.4781948,18.0648379 C18.3098793,18.1575436 18.2089943,18.3151496 18.2099629,18.4837905 L18.2099629,21.0174564 L11.7306733,21.0174564 L11.7306733,18.4538653 C11.7316419,18.2852244 11.6307569,18.1276185 11.4624415,18.0349127 C9.1803844,16.7589152 7.79414725,14.6254988 7.75488109,12.3291771 C7.86940119,8.99482544 11.1927194,6.36945137 15.1776762,6.46527431 C19.0016939,6.55723192 22.0758546,9.12948878 22.1857551,12.3291771 C22.1523752,14.6308603 20.7653929,16.7708853 18.4781948,18.0498753 Z" id="Shape"></path>
                                <path d="M15.2057661,7.56608479 C14.876586,7.56608479 14.6096953,7.7894015 14.6096953,8.06483791 C14.6096953,8.34027431 14.876586,8.56359102 15.2057661,8.56359102 C17.6832598,8.56633416 19.6909008,10.246197 19.6941792,12.319202 C19.6941792,12.5946384 19.9610699,12.8179551 20.29025,12.8179551 C20.6194301,12.8179551 20.8863208,12.5946384 20.8863208,12.319202 C20.8830424,9.69526185 18.3416945,7.56882793 15.2057661,7.56608479 Z" id="Shape"></path>
                                <path d="M4.95334834,11.8204489 L0.661638586,11.8204489 C0.332458488,11.8204489 0.0655677878,12.0437656 0.0655677878,12.319202 C0.0655677878,12.5946384 0.332458488,12.8179551 0.661638586,12.8179551 L4.95334834,12.8179551 C5.28252844,12.8179551 5.54941914,12.5946384 5.54941914,12.319202 C5.54941914,12.319202 5.54941914,12.319202 5.54941914,12.319202 C5.54941914,12.0437656 5.28252844,11.8204489 4.95334834,11.8204489 Z" id="Shape"></path>
                                <path d="M29.2730369,11.8204489 L24.9813272,11.8204489 C24.6521471,11.8204489 24.3852564,12.0437656 24.3852564,12.319202 C24.3852564,12.5946384 24.6521471,12.8179551 24.9813272,12.8179551 L29.2730369,12.8179551 C29.602217,12.8179551 29.8691077,12.5946384 29.8691077,12.319202 C29.8691077,12.0437656 29.602217,11.8204489 29.2730369,11.8204489 Z" id="Shape"></path>
                                <path d="M8.36831245,17.9002494 C8.15417402,17.6910224 7.77790432,17.6666459 7.52785262,17.8458229 C7.50453135,17.8625312 7.48277477,17.8807357 7.4628064,17.9002494 L7.4628064,17.8902743 L4.41688462,20.4488778 C4.16683292,20.6280549 4.13769996,20.9428928 4.35183839,21.1521197 C4.56597683,21.3613466 4.94224652,21.3857232 5.19229822,21.2065461 C5.21561949,21.1898379 5.23737607,21.1716334 5.25734444,21.1521197 L8.30326622,18.6034913 C8.55331792,18.4243142 8.58245088,18.1094763 8.36831245,17.9002494 Z" id="Shape"></path>
                                <path d="M25.4527447,3.49127182 C25.2295907,3.3313591 24.9004851,3.3313591 24.6773311,3.49127182 L21.6314093,6.03990025 C21.397675,6.23385287 21.3961103,6.54968828 21.6279074,6.74526185 C21.7406393,6.840399 21.8944255,6.89357855 22.0546195,6.89276808 L22.0486588,6.88778055 C22.2070647,6.88852868 22.3593607,6.83647132 22.4718691,6.74314214 L25.5177909,4.19451372 C25.7319293,3.98528678 25.7027964,3.67044888 25.4527447,3.49127182 Z" id="Shape"></path>
                                <path d="M25.6360364,20.5491895 C25.6025075,20.5112219 25.5627197,20.4774314 25.5177909,20.4488778 L22.4718691,17.8902743 C22.2577307,17.6810474 21.881461,17.6566708 21.6314093,17.8358479 C21.3813576,18.0150249 21.3522246,18.3298628 21.5663631,18.5390898 C21.5863314,18.5586035 21.608088,18.576808 21.6314093,18.5935162 L24.6773311,21.1421446 C24.8729913,21.3636534 25.2462806,21.4104738 25.5110106,21.2467581 C25.7757405,21.0830424 25.8316967,20.7706983 25.6360364,20.5491895 Z" id="Shape"></path>
                                <path d="M8.30326622,6.03990025 L5.25734444,3.49127182 C5.00729274,3.31209476 4.63102305,3.33647132 4.41688462,3.54569825 C4.22576942,3.73241895 4.22576942,4.00779302 4.41688462,4.19451372 L7.4628064,6.74314214 C7.7128581,6.9223192 8.08912779,6.89794264 8.30326622,6.68871571 C8.49438142,6.50199501 8.49438142,6.22662095 8.30326622,6.03990025 Z" id="Shape"></path>
                                <path d="M14.9673378,0 C14.6381577,0 14.371267,0.223316708 14.371267,0.498753117 L14.371267,4.10473815 C14.3613573,4.38004988 14.6201265,4.60997506 14.9491576,4.61820449 C14.9551928,4.61832918 14.961228,4.61845387 14.9673378,4.61845387 C15.2965179,4.61845387 15.5634086,4.39513716 15.5634086,4.11970075 L15.5634086,0.498753117 C15.5634086,0.223316708 15.2965179,0 14.9673378,0 Z" id="Shape"></path>
                            </g>
                        </g>
                    </g>
                </g>
            </g>
        </g>
    </g>
</svg>