<?xml version="1.0" encoding="UTF-8"?>
<svg width="70px" height="61px" viewBox="0 0 70 61" version="1.1" xmlns="http://www.w3.org/2000/svg" xmlns:xlink="http://www.w3.org/1999/xlink">
    <!-- Generator: Sketch 49.2 (51160) - http://www.bohemiancoding.com/sketch -->
    <title>graphic-tool</title>
    <desc>Created with Sketch.</desc>
    <defs></defs>
    <g id="Final-Designs" stroke="none" stroke-width="1" fill="none" fill-rule="evenodd">
        <g id="Desktop:-Case-Study" transform="translate(-190.000000, -12565.000000)" fill="#FFFFFF" fill-rule="nonzero">
            <g id="Design" transform="translate(0.000000, 12506.000000)">
                <g id="Design-Header">
                    <g id="graphic-tool" transform="translate(190.000000, 59.000000)">
                        <path d="M47.1326511,9.84748538 L40.478694,0.606530214 C40.2223002,0.250389864 39.8102144,0.0392982456 39.371384,0.0392982456 C38.9325536,0.0392982456 38.5204678,0.250389864 38.2640741,0.606530214 L31.610117,9.84748538 C31.4428265,10.0797271 31.3529045,10.3586355 31.3529045,10.6447758 L31.3529045,10.8626901 L31.3529045,55.1433528 C31.3529045,57.9589084 33.6435283,60.2495322 36.4590838,60.2495322 L42.2835478,60.2495322 C45.0992398,60.2495322 47.3898635,57.9589084 47.3898635,55.1433528 L47.3898635,10.8626901 L47.3898635,10.6447758 C47.3898635,10.3586355 47.2999415,10.0795906 47.1326511,9.84748538 Z M39.371384,3.73906433 L43.5183041,9.49816764 L35.2246004,9.49816764 L39.371384,3.73906433 Z M34.0819493,12.2272125 L40.5607018,12.2272125 L40.5607018,47.5705263 L38.1816569,47.5705263 L38.1816569,21.5067836 C38.1817934,20.7530214 37.5708967,20.1421248 36.817271,20.1421248 C36.0637817,20.1421248 35.4527485,20.7530214 35.4527485,21.5066472 L35.4527485,47.5703899 L34.0819493,47.5705263 L34.0819493,12.2272125 Z M44.6608187,55.1432164 C44.6608187,56.4539766 43.5944444,57.5203509 42.2835478,57.5203509 L36.4590838,57.5203509 C35.14846,57.5203509 34.0819493,56.4539766 34.0819493,55.1432164 L34.0819493,50.2994347 L44.6608187,50.2994347 L44.6608187,55.1432164 Z M44.6608187,47.5705263 L43.289883,47.5705263 L43.289883,12.2272125 L44.6608187,12.2272125 L44.6608187,47.5705263 Z" id="Shape"></path>
                        <path d="M38.1547758,15.7602339 C38.137037,15.674269 38.1111111,15.5883041 38.0769981,15.5050682 C38.042885,15.4231969 38.0005848,15.3440546 37.951462,15.2703704 C37.9023392,15.1953216 37.8450292,15.125731 37.7822612,15.062963 C37.7194932,15.0001949 37.6499025,14.942885 37.5748538,14.8923977 C37.5011696,14.8432749 37.4220273,14.8023392 37.3387914,14.7682261 C37.2569201,14.7341131 37.1710916,14.7068226 37.0836257,14.6890838 C36.9076023,14.6549708 36.7261209,14.6549708 36.5500975,14.6890838 C36.4641326,14.7068226 36.3781676,14.7341131 36.2950682,14.7682261 C36.2130604,14.8023392 36.1339181,14.8432749 36.0602339,14.8923977 C35.9851852,14.942885 35.9155945,15.0001949 35.8528265,15.062963 C35.7900585,15.125731 35.7327485,15.1953216 35.6822612,15.2703704 C35.6331384,15.3440546 35.5908382,15.4231969 35.5567251,15.5050682 C35.5226121,15.5883041 35.4966862,15.674269 35.4789474,15.7602339 C35.4612086,15.8489279 35.4530214,15.9389864 35.4530214,16.0276803 C35.4530214,16.3865497 35.5990253,16.7385965 35.852963,16.9923977 C36.1066277,17.2461988 36.4586745,17.3922027 36.8175439,17.3922027 C36.9062378,17.3922027 36.9964327,17.3826511 37.0836257,17.3649123 C37.1710916,17.3471735 37.2570565,17.3212476 37.3387914,17.2871345 C37.4220273,17.2530214 37.5011696,17.2107212 37.5748538,17.1615984 C37.6499025,17.1124756 37.7194932,17.0551657 37.7822612,16.9923977 C37.8450292,16.9296296 37.9023392,16.860039 37.951462,16.7849903 C38.0005848,16.711306 38.042885,16.6321637 38.0769981,16.5489279 C38.1111111,16.4670565 38.137037,16.3810916 38.1547758,16.2937622 C38.1725146,16.2064327 38.1819298,16.1163743 38.1819298,16.0276803 C38.1819298,15.9389864 38.1725146,15.8489279 38.1547758,15.7602339 Z" id="Shape"></path>
                        <path d="M13.2720273,25.5947563 L13.2716179,25.3868031 C13.2717544,24.311423 14.1466862,23.4364912 15.2220663,23.4364912 C15.241306,23.4364912 15.2605458,23.4360819 15.2797856,23.4352632 L19.4361209,23.2593762 C21.8631969,23.2423197 23.8326121,21.2625341 23.8326121,18.8313645 C23.8326121,16.3896881 21.8461404,14.4033528 19.4046004,14.4033528 L10.1180702,14.4033528 C9.18132554,14.4033528 8.41910331,13.6411306 8.41910331,12.7042495 C8.41910331,12.2509552 8.59785575,11.8253606 8.92233918,11.5059259 C9.23358674,11.1993177 9.64048733,11.0314815 10.0703119,11.0314815 C10.0861404,11.0314815 10.1022417,11.0318908 10.1180702,11.0318908 L18.2433918,11.0316179 C21.2739961,11.0316179 23.7394152,8.56592593 23.7394152,5.53532164 C23.7394152,2.50471735 21.2738596,0.0391617934 18.2432554,0.0391617934 L9.00025341,0.0391617934 C8.24676413,0.0391617934 7.63573099,0.65005848 7.63573099,1.40368421 C7.63573099,2.15730994 8.24676413,2.76820663 9.00025341,2.76820663 L18.2432554,2.76820663 C19.7690643,2.76820663 21.0103704,4.00951267 21.0103704,5.53532164 C21.0103704,7.0611306 19.7690643,8.30243665 18.2433918,8.3025731 L10.1277583,8.302846 C8.95890838,8.28674464 7.84791423,8.73389864 7.00791423,9.56093567 C6.15808967,10.3976608 5.69005848,11.5138402 5.69005848,12.704386 C5.69005848,15.1460624 7.67653021,17.1325341 10.1180702,17.1325341 L19.4044639,17.1325341 C20.3412086,17.1325341 21.1034308,17.8946199 21.1034308,18.831501 C21.1034308,19.7683821 20.3412086,20.5306043 19.4044639,20.5306043 C19.3852242,20.5306043 19.3659844,20.5310136 19.3467446,20.5318324 L15.1908187,20.7077193 C12.6248343,20.7245029 10.5427096,22.8171345 10.5427096,25.3896686 L10.5431189,25.595575 C4.61740741,26.2757895 0,31.3216569 0,37.4266667 L0,48.3624951 C0,54.9298051 5.34292398,60.272729 11.9102339,60.272729 C18.4775439,60.272729 23.8204678,54.9298051 23.8204678,48.3624951 L23.8204678,37.4266667 C23.8204678,31.319883 19.2003314,26.2726511 13.2720273,25.5947563 Z M2.72904483,37.4266667 C2.72904483,32.8275439 6.12779727,29.0075634 10.5457115,28.3465887 L10.5457115,39.4759064 L2.72904483,39.4759064 L2.72904483,37.4266667 Z M21.091423,48.3624951 C21.091423,53.4250097 16.9727485,57.5436842 11.9102339,57.5436842 C6.8477193,57.5436842 2.72904483,53.4250097 2.72904483,48.3624951 L2.72904483,42.2050877 L21.091423,42.2050877 L21.091423,48.3624951 Z M21.091423,39.4759064 L13.2747563,39.4759064 L13.2747563,28.3465887 C17.6926706,29.0075634 21.091423,32.8275439 21.091423,37.4266667 L21.091423,39.4759064 Z" id="Shape"></path>
                        <path d="M5.08407407,1.13664717 C5.06633528,1.05068226 5.04040936,0.964717349 5.0062963,0.881481481 C4.97218324,0.799610136 4.92988304,0.720467836 4.88076023,0.646783626 C4.83177388,0.571734893 4.77446394,0.50214425 4.71169591,0.439376218 C4.45789474,0.185575049 4.10584795,0.0395711501 3.74697856,0.0395711501 C3.38810916,0.0395711501 3.03606238,0.185575049 2.78226121,0.439376218 C2.71949318,0.50214425 2.66218324,0.571734893 2.61306043,0.646783626 C2.56270955,0.720467836 2.52163743,0.799610136 2.48752437,0.881481481 C2.45204678,0.964717349 2.42625731,1.05068226 2.40838207,1.13664717 C2.39064327,1.22534113 2.38259259,1.31539961 2.38259259,1.40409357 C2.38259259,1.49278752 2.39077973,1.582846 2.40838207,1.67017544 C2.42612086,1.75750487 2.45204678,1.84346979 2.48738791,1.92534113 C2.52150097,2.008577 2.5625731,2.0877193 2.61292398,2.16140351 C2.66204678,2.23645224 2.71935673,2.30604288 2.78212476,2.36881092 C2.84489279,2.43157895 2.91448343,2.48888889 2.98966862,2.5380117 C3.06335283,2.5871345 3.14249513,2.6294347 3.22436647,2.66354776 C3.30760234,2.69766082 3.39356725,2.72358674 3.48089669,2.74132554 C3.56822612,2.75906433 3.6582846,2.76861598 3.74697856,2.76861598 C4.10584795,2.76861598 4.45789474,2.62261209 4.71169591,2.36881092 C4.77446394,2.30604288 4.83177388,2.23645224 4.88076023,2.16140351 C4.92988304,2.0877193 4.97218324,2.008577 5.0062963,1.92534113 C5.04040936,1.84346979 5.06633528,1.75750487 5.08407407,1.67017544 C5.10181287,1.582846 5.11136452,1.49278752 5.11136452,1.40409357 C5.11136452,1.31539961 5.10181287,1.22534113 5.08407407,1.13664717 Z" id="Shape"></path>
                        <path d="M69.8533138,13.6545029 C69.7025341,10.4346394 68.0805263,8.84101365 66.7771345,7.56054581 C65.367037,6.17500975 64.515848,5.33869396 65.3195517,2.59777778 C65.6834698,1.35688109 65.1822807,0.705321637 64.8509747,0.427368421 C64.4387524,0.0815984405 63.7031384,-0.209590643 62.5378363,0.367192982 C61.0279922,1.11467836 58.7362768,3.31224172 56.9648538,5.71093567 C55.3384795,7.91341131 53.4312865,11.211462 53.581384,14.4164522 C53.6936842,16.8130994 54.7098441,19.0106628 56.368694,20.5563938 C55.5488889,21.6627485 55.0629825,23.0306823 55.0629825,24.5102339 C55.0629825,25.4488889 55.2542885,26.3436062 55.6022417,27.15577 L55.6022417,53.8216764 C55.6022417,57.067193 58.242729,59.7075439 61.4881092,59.7075439 C64.7334893,59.7075439 67.3739766,57.067193 67.3739766,53.8216764 L67.3739766,28.0369786 C68.010117,27.0123587 68.3734893,25.8031189 68.3734893,24.5102339 C68.3736257,23.0484211 67.8987719,21.6961793 67.0968421,20.5970565 C68.947271,18.8795322 69.9792593,16.3457505 69.8533138,13.6545029 Z M64.6449318,53.82154 C64.6450682,55.5622612 63.2289669,56.9783626 61.4882456,56.9783626 C59.7475244,56.9783626 58.331423,55.5622612 58.331423,53.82154 L58.331423,30.2481871 C59.0400195,30.6632749 59.8367641,30.954191 60.6965497,31.0869591 C60.7654581,31.0976023 60.8350487,31.102924 60.9046394,31.102924 L62.5319688,31.102924 C62.6016959,31.102924 62.6712865,31.0976023 62.7400585,31.0869591 C62.8299805,31.0730409 62.9194932,31.0569396 63.0085965,31.0393372 C63.0654971,31.0282846 63.1215789,31.0154581 63.1779337,31.0030409 C63.2022222,30.9975828 63.2266472,30.9923977 63.2509357,30.9866667 C63.7407992,30.8723197 64.207193,30.7059844 64.6449318,30.4940741 L64.6449318,53.82154 Z M63.562729,27.9739376 C63.5568616,27.9768031 63.5512671,27.9798051 63.5456725,27.982807 C63.5063743,28.0036842 63.4666667,28.0236062 63.4265497,28.0432554 C63.4075828,28.0525341 63.3884795,28.06154 63.3692398,28.0705458 C63.3386745,28.0848733 63.3079727,28.0987914 63.2771345,28.1123002 C63.2480702,28.1249903 63.2187329,28.1371345 63.1893957,28.1491423 C63.1655166,28.1588304 63.1417739,28.168655 63.1177583,28.1779337 C63.0813255,28.1919883 63.0444834,28.2050877 63.0076413,28.2180507 C62.988538,28.2247368 62.9695712,28.2316959 62.9503314,28.2381092 C62.9087135,28.2518908 62.8668226,28.2647173 62.8247953,28.2771345 C62.8088304,28.2819103 62.7930019,28.2869591 62.7769006,28.2915984 C62.7310526,28.3045614 62.6847953,28.3161598 62.6384016,28.3273489 C62.6253021,28.3304873 62.6124756,28.3341715 62.5993762,28.3371735 C62.5397466,28.3509552 62.4798441,28.3633723 62.4195322,28.3742885 L61.0177583,28.3742885 C61.0163938,28.3740156 61.0150292,28.3737427 61.0136647,28.3734698 C60.9477583,28.3615984 60.8826706,28.3474074 60.8178558,28.3321248 C60.7919298,28.3259844 60.7662768,28.3192982 60.7404873,28.3126121 C60.7018713,28.3026511 60.6633918,28.2921442 60.6251852,28.2809552 C60.5929825,28.27154 60.5606433,28.2622612 60.5287135,28.2520273 C60.5045614,28.244386 60.4806823,28.2357895 60.4566667,28.2276023 C58.8997466,27.6948928 57.7924366,26.2006043 57.7924366,24.5103704 C57.7924366,23.2449123 58.3948733,22.1180897 59.3272515,21.3995322 C59.3631384,21.3718324 59.3995712,21.3449513 59.4362768,21.318616 C59.4990448,21.2735867 59.5631774,21.2303314 59.6286745,21.1889864 C59.6573294,21.1708382 59.6861209,21.1528265 59.7151852,21.1354971 C59.805653,21.0815984 59.8983041,21.0311111 59.9932749,20.9844444 C60.0025536,20.9798051 60.0118324,20.9748928 60.0211111,20.9703899 C60.0761014,20.9439181 60.1319103,20.9186745 60.1882651,20.8946589 C60.1975439,20.8907018 60.2069591,20.8872904 60.2162378,20.8834698 C60.3142105,20.8426706 60.41423,20.8061014 60.5160234,20.7732164 C60.5475439,20.7631189 60.5790643,20.7535673 60.6108577,20.7442885 C60.6797661,20.7239571 60.7494932,20.7056725 60.820039,20.6890253 C60.8738012,20.6764717 60.9278363,20.6646004 60.9822807,20.6543665 C61.0192593,20.647271 61.0562378,20.6404483 61.0934893,20.6344444 C61.1789084,20.6209357 61.2650097,20.6097466 61.3519298,20.6018324 C61.3753996,20.5996491 61.3991423,20.5981481 61.4227485,20.5963743 C61.5208577,20.5891423 61.6193762,20.5840936 61.7188499,20.5840936 C61.8198246,20.5840936 61.9195712,20.5894152 62.0189084,20.5967836 C62.0423782,20.5985575 62.0659844,20.599922 62.0893177,20.6021053 C62.1763743,20.6101559 62.2626121,20.6216179 62.3481676,20.6352632 C62.3867836,20.64154 62.4251267,20.648499 62.4634698,20.6558674 C62.5183236,20.6662378 62.572768,20.6785185 62.6269396,20.691345 C62.6981676,20.7082651 62.7687135,20.7269591 62.8383041,20.7476998 C62.867232,20.7562963 62.8961598,20.7653021 62.9249513,20.7745809 C63.0227875,20.8062378 63.1189864,20.8415789 63.2132749,20.8804678 C63.227193,20.8861988 63.2412476,20.8916569 63.2550292,20.8975244 C63.4204094,20.9680702 63.5797856,21.0499415 63.7326121,21.1416374 C63.7664522,21.1619688 63.7997466,21.1832554 63.8330409,21.2046784 C63.8947173,21.2442495 63.9551657,21.2853216 64.014386,21.3281676 C64.055731,21.3581871 64.0966667,21.3890253 64.1370565,21.4208187 C65.0540156,22.1401949 65.6448538,23.257193 65.6448538,24.5103704 C65.6448538,25.9813255 64.8064912,27.3043665 63.562729,27.9739376 Z M65.0624756,18.7563158 C65.0328655,18.7391228 65.0018908,18.7245224 64.9721442,18.7077388 C64.9009162,18.6676218 64.8285965,18.6290058 64.755731,18.5914815 C64.7184795,18.5723782 64.681501,18.5525926 64.6438402,18.5341715 C64.4008187,18.4147758 64.1493372,18.3105263 63.8908967,18.2210136 C63.8765692,18.2161014 63.8623782,18.2113255 63.8480507,18.2064133 C63.718694,18.1626121 63.5876998,18.1220858 63.4549318,18.0861988 C63.454386,18.0860624 63.4538402,18.0859259 63.4531579,18.085653 C63.1842105,18.012924 62.9087135,17.957115 62.6274854,17.918499 C62.6018324,17.9149513 62.5760429,17.9119493 62.5503899,17.9086745 C62.4417739,17.8950292 62.3324756,17.8841131 62.2223587,17.8759259 C62.1894737,17.8734698 62.1567251,17.8704678 62.1238402,17.8684211 C61.9895712,17.8603704 61.8546199,17.8549123 61.7184405,17.8549123 C61.5836257,17.8549123 61.450039,17.8602339 61.3171345,17.8681481 C61.2853411,17.8700585 61.2536842,17.8730604 61.2218908,17.8753801 C61.1128655,17.8834308 61.0045224,17.8940741 60.8969981,17.9074464 C60.8717544,17.9105848 60.8466472,17.9135867 60.8214035,17.9171345 C60.4049513,17.9734893 60.0007797,18.0685965 59.6121637,18.1986355 C59.6011111,18.2023197 59.5901949,18.2060039 59.5792788,18.2098246 C59.4561988,18.2517154 59.3344834,18.2967446 59.2146784,18.3455945 C59.2047173,18.3496881 59.1946199,18.3533723 59.1846589,18.3574659 C59.0596686,18.4091813 58.9363158,18.4638986 58.8151462,18.522846 C58.7888109,18.5356725 58.7631579,18.5498635 58.7369591,18.562963 C58.6541326,18.6045809 58.5721248,18.6475634 58.491345,18.6925926 C58.4677388,18.705692 58.4431774,18.7170175 58.4197076,18.7303899 C57.1648928,17.6626511 56.3903899,16.0579727 56.3075634,14.2888694 C56.2158674,12.3326901 57.3626121,9.65536062 59.4536062,6.94337232 C60.5016959,5.58403509 61.5114425,4.55777778 62.3106433,3.86037037 C62.084269,6.77539961 63.6020273,8.26668616 64.8646199,9.50717349 C66.0247368,10.6469591 67.0265692,11.6311891 67.127271,13.7820858 C67.2193762,15.7483626 66.4422807,17.5825536 65.0624756,18.7563158 Z" id="Shape"></path>
                    </g>
                </g>
            </g>
        </g>
    </g>
</svg>