<?xml version="1.0" encoding="UTF-8"?>
<svg width="60px" height="60px" viewBox="0 0 60 60" version="1.1" xmlns="http://www.w3.org/2000/svg" xmlns:xlink="http://www.w3.org/1999/xlink">
    <!-- Generator: Sketch 49.2 (51160) - http://www.bohemiancoding.com/sketch -->
    <title>telescope (2)</title>
    <desc>Created with Sketch.</desc>
    <defs></defs>
    <g id="Final-Designs" stroke="none" stroke-width="1" fill="none" fill-rule="evenodd">
        <g id="Desktop:-Case-Study" transform="translate(-188.000000, -2257.000000)" fill="#FFFFFF" fill-rule="nonzero">
            <g id="Discovery" transform="translate(0.000000, 2197.000000)">
                <g id="Discovery-header">
                    <g id="telescope-(2)" transform="translate(188.000000, 60.000000)">
                        <path d="M25.5747441,31.9910454 C25.5747441,34.8414656 27.5228435,37.2450657 30.1576206,37.9413378 L30.1576206,43.7902047 L25.6318531,43.7902047 L21.6959064,59.7519188 L25.3047332,59.7519188 L28.3767361,47.293951 L30.1576206,47.293951 L30.1576206,59.7519188 L33.6618239,59.7519188 L33.6618239,47.293951 L35.4427083,47.293951 L38.5147112,59.7519188 L42.123538,59.7519188 L38.1875913,43.7902047 L33.6618239,43.7902047 L33.6618239,37.8326023 C36.1106543,37.0198282 37.8828582,34.708973 37.8828582,31.9910454 C37.8828582,30.1640168 37.0819627,28.5211075 35.813231,27.3930922 L42.474872,25.0274123 L35.8219116,6.29203216 L13.2113487,14.3210891 L14.1113853,16.8567251 L8.20403871,18.9542215 L13.0560124,32.6187865 L18.9638158,30.5208333 L19.8643092,33.0564692 L25.6556104,31.0000913 C25.6030702,31.3226426 25.5747441,31.6534174 25.5747441,31.9910454 Z" id="Shape"></path>
                        <polygon id="Shape" points="0 21.8663194 4.90131579 20.1260965 9.75283263 33.7897478 4.85197368 35.5299708"></polygon>
                        <path d="M59.3050987,8.50191883 C58.4169408,5.9996345 56.6068165,3.9935124 54.2096126,2.85224784 C52.3478619,1.96637427 50.3056469,1.68722585 48.3141448,2.02119883 L47.5963999,0.000456871345 L38.458516,3.24515719 L46.4423428,25.7287098 L55.5806835,22.4840095 L54.8629386,20.4628106 C56.619152,19.4663743 58.0281433,17.96144 58.9140168,16.1001462 C60.0548246,13.7024854 60.1937135,11.0042033 59.3050987,8.50191883 Z" id="Shape"></path>
                    </g>
                </g>
            </g>
        </g>
    </g>
</svg>