<?xml version="1.0" encoding="UTF-8"?>
<svg width="70px" height="56px" viewBox="0 0 70 56" version="1.1" xmlns="http://www.w3.org/2000/svg" xmlns:xlink="http://www.w3.org/1999/xlink">
    <!-- Generator: Sketch 49.2 (51160) - http://www.bohemiancoding.com/sketch -->
    <title>salute copy</title>
    <desc>Created with Sketch.</desc>
    <defs></defs>
    <g id="Final-Designs" stroke="none" stroke-width="1" fill="none" fill-rule="evenodd">
        <g id="Desktop:-Case-Study" transform="translate(-190.000000, -995.000000)" fill="#FFFFFF" fill-rule="nonzero">
            <g id="Intro" transform="translate(-1.000000, 932.000000)">
                <g id="Discovery-header">
                    <g id="salute-copy" transform="translate(191.000000, 63.000000)">
                        <path d="M33.6167907,31.8624115 C33.6167907,30.8712005 33.3155823,29.9488831 32.8002166,29.1819762 C33.3155823,28.4156037 33.6167907,27.4932861 33.6167907,26.5015412 C33.6167907,25.5103302 33.3155823,24.5880127 32.8002166,23.821106 C33.3155823,23.0547332 33.6167907,22.1324157 33.6167907,21.1406707 C33.6167907,18.4864045 31.4575959,16.3266754 28.8027954,16.3266754 L26.0144806,16.3266754 C26.0694886,16.0233307 26.0983276,15.7114411 26.0983276,15.3926087 C26.0983276,13.0475617 24.4283294,11.0160065 22.1276092,10.5631256 L17.0065308,9.55482486 C14.2112731,9.00314324 11.2867737,9.8223877 9.18418881,11.7449951 L4.17152408,16.3266754 L2.13356021,16.3266754 C0.955429043,16.3266754 0,17.2821045 0,18.4602357 L0,39.9031829 C0,41.0818481 0.955429043,42.0372772 2.13356021,42.0372772 L27.3805999,42.0372772 C30.0348664,42.0372772 32.1945954,39.8775482 32.1945954,37.2227477 C32.1945954,36.6347503 32.0883179,36.0713196 31.8944549,35.5495453 C32.9470825,34.666214 33.6167907,33.3412171 33.6167907,31.8624115 Z M28.8027954,25.9552002 C29.1045379,25.9552002 29.3496704,26.2003327 29.3496704,26.5015412 C29.3496704,26.8032837 29.1040039,27.0484162 28.8027954,27.0484162 C27.6246644,27.0484162 26.6692352,28.0038452 26.6692352,29.1819762 C26.6692352,30.3606414 27.6246644,31.3160706 28.8027954,31.3160706 C29.1045379,31.3160706 29.3496704,31.561203 29.3496704,31.8624115 C29.3496704,32.16362 29.1040039,32.4092865 28.8027954,32.4092865 L27.3805999,32.4092865 C26.2019349,32.4092865 25.2465057,33.3647155 25.2465057,34.5428467 C25.2465057,35.7215119 26.2019349,36.6764069 27.3805999,36.6764069 C27.6818084,36.6764069 27.9269409,36.9220734 27.9269409,37.2232819 C27.9269409,37.5244904 27.6818084,37.7696227 27.3805999,37.7696227 L4.26765445,37.7696227 L4.26765445,20.5943298 L4.99984734,20.5943298 C5.53283691,20.5943298 6.04606625,20.3951263 6.43913266,20.0351715 L12.0632935,14.8948669 C13.1703949,13.8828278 14.710083,13.4513092 16.1814118,13.7418366 L21.3030243,14.7506714 C21.6085052,14.8104858 21.8306732,15.0807191 21.8306732,15.3926087 C21.8306732,15.9074401 21.411438,16.3266754 20.8966064,16.3266754 L17.6783753,16.3266754 C16.4997101,16.3266754 15.5442809,17.2821045 15.5442809,18.4607697 C15.5442809,19.6389007 16.4997101,20.5943298 17.6783753,20.5943298 L28.8027954,20.5943298 C29.1040039,20.5943298 29.3491364,20.8394622 29.3491364,21.1412048 C29.3491364,21.4424134 29.1040039,21.6875457 28.8027954,21.6875457 C27.6241302,21.6875457 26.6692352,22.6429749 26.6692352,23.82164 C26.6692352,24.9997712 27.6241302,25.9552002 28.8027954,25.9552002 Z" id="Shape"></path>
                        <path d="M67.8664398,16.3266754 L65.8284759,16.3266754 L60.8163452,11.7449951 C58.7132262,9.82292172 55.7887269,9.0036774 52.9940033,9.55482486 L47.8729248,10.5631256 C45.5716706,11.0165405 43.9016724,13.0475617 43.9016724,15.3926087 C43.9016724,15.7114411 43.9305114,16.0238647 43.9860534,16.3266754 L41.1972046,16.3266754 C38.5424041,16.3266754 36.3832093,18.4864045 36.3832093,21.1412048 C36.3832093,22.1324157 36.6838836,23.0547332 37.1997834,23.82164 C36.6838836,24.5880127 36.3832093,25.5103302 36.3832093,26.5015412 C36.3832093,27.4932861 36.6838836,28.4156037 37.1997834,29.1819763 C36.6838836,29.9488831 36.3832093,30.8712005 36.3832093,31.8624115 C36.3832093,33.3412171 37.0529175,34.666214 38.1055451,35.5500794 C37.9116821,36.0713196 37.8054046,36.6352845 37.8054046,37.2232819 C37.8054046,39.8780823 39.9651336,42.0378112 42.6199341,42.0378112 L67.8664398,42.0378112 C69.044571,42.0378112 70,41.0823822 70,39.9037171 L70,18.4607697 C70,17.2821045 69.044571,16.3266754 67.8664398,16.3266754 Z M65.7323455,37.7696227 L42.6194001,37.7696227 C42.3181916,37.7696227 42.0730591,37.5244904 42.0730591,37.2232819 C42.0730591,36.9215394 42.3181916,36.6764069 42.6194001,36.6764069 C43.7980651,36.6764069 44.7534943,35.7209779 44.7534943,34.5428467 C44.7534943,33.3641815 43.7980651,32.4087524 42.6194001,32.4087524 L41.1972046,32.4087524 C40.8954621,32.4087524 40.6503296,32.16362 40.6503296,31.8624115 C40.6503296,31.561203 40.8954621,31.3155365 41.1972046,31.3155365 C42.3753356,31.3155365 43.3307648,30.3601074 43.3307648,29.1819763 C43.3307648,28.0033112 42.3753356,27.0484162 41.1972046,27.0484162 C40.8954621,27.0484162 40.6503296,26.8027497 40.6503296,26.5015412 C40.6503296,26.2003327 40.8954621,25.9552002 41.1972046,25.9552002 C42.3753356,25.9552002 43.3307648,24.9997712 43.3307648,23.821106 C43.3307648,22.6429749 42.3753356,21.6875457 41.1972046,21.6875457 C40.8954621,21.6875457 40.6503296,21.4424134 40.6503296,21.1406707 C40.6503296,20.8394622 40.8954621,20.5937957 41.1972046,20.5937957 L52.3216247,20.5937957 C53.4997559,20.5937957 54.4551849,19.6389007 54.4551849,18.4602357 C54.4551849,17.2821045 53.4997559,16.3266754 52.3216247,16.3266754 L49.1033936,16.3266754 C48.588562,16.3266754 48.1693268,15.9074401 48.1693268,15.3920746 C48.1693268,15.0807191 48.3914948,14.8104858 48.6969757,14.7501374 L53.8185882,13.7413024 C55.290985,13.4518433 56.8296051,13.8828278 57.9367065,14.8943329 L63.5603333,20.0351715 C63.9539337,20.3945923 64.4671631,20.5937957 65.0001527,20.5937957 L65.7323455,20.5937957 L65.7323455,37.7696227 Z" id="Shape"></path>
                        <path d="M35.0843812,8.35746762 C36.2630462,8.35746762 37.2184753,7.40203857 37.2184753,6.22337338 L37.2184753,2.13409424 C37.2184753,0.955429043 36.2630462,0 35.0843812,0 C33.90625,0 32.950821,0.955429043 32.950821,2.13409424 L32.950821,6.22337338 C32.950821,7.40203857 33.90625,8.35746762 35.0843812,8.35746762 Z" id="Shape"></path>
                        <path d="M27.5616455,8.4487915 C27.9563141,9.13665771 28.6751556,9.52171322 29.4148255,9.52171322 C29.7747803,9.52171322 30.1395417,9.43038934 30.4743958,9.23866275 C31.496582,8.65226742 31.8501282,7.34809879 31.2637329,6.32591244 L29.2295075,2.77816766 C28.6431121,1.75598145 27.3389435,1.40243523 26.3167572,1.98829654 C25.294571,2.57469174 24.9410247,3.87886051 25.5274201,4.90104672 L27.5616455,8.4487915 Z" id="Shape"></path>
                        <path d="M39.5256042,9.23866275 C39.8604583,9.43038934 40.2252197,9.52171322 40.5851745,9.52171322 C41.3248444,9.52171322 42.0436859,9.13665771 42.4383545,8.4487915 L44.4725799,4.90104672 C45.0589753,3.87886051 44.705429,2.57469174 43.6832428,1.98829654 C42.6610565,1.40243523 41.3568879,1.75544742 40.7704925,2.77816766 L38.7357331,6.32591244 C38.1498718,7.34809879 38.503418,8.65226742 39.5256042,9.23866275 Z" id="Shape"></path>
                        <path d="M34.9156188,47.2785187 C33.7369538,47.2785187 32.7815247,48.2339478 32.7815247,49.4120788 L32.7815247,53.5018921 C32.7815247,54.6805573 33.7369538,55.6359863 34.9156188,55.6359863 C36.094284,55.6359863 37.049179,54.6805573 37.049179,53.5018921 L37.049179,49.4120788 C37.049179,48.2339478 36.09375,47.2785187 34.9156188,47.2785187 Z" id="Shape"></path>
                        <path d="M42.4383545,47.1871948 C41.8519593,46.1644745 40.5483246,45.8114624 39.5256042,46.3973236 C38.503418,46.9837189 38.1498718,48.2873535 38.7362671,49.3100739 L40.7704925,52.8578187 C41.1651611,53.5451507 41.8840026,53.9302064 42.6236725,53.9302064 C42.9836273,53.9302064 43.3483887,53.8388825 43.6832428,53.6471558 C44.705429,53.0612946 45.0589753,51.7571258 44.4725799,50.7349396 L42.4383545,47.1871948 Z" id="Shape"></path>
                        <path d="M30.4743958,46.3973236 C29.4516754,45.8114624 28.1480407,46.1644745 27.5616455,47.1871948 L25.5274201,50.7349396 C24.9410247,51.7571258 25.294571,53.0612946 26.3167572,53.6471558 C26.6516113,53.8394165 27.0163727,53.9302064 27.3763275,53.9302064 C28.1159974,53.9302064 28.8348389,53.5451507 29.2295075,52.8578187 L31.2637329,49.3100739 C31.8501282,48.2873535 31.496582,46.9837189 30.4743958,46.3973236 Z" id="Shape"></path>
                    </g>
                </g>
            </g>
        </g>
    </g>
</svg>