<?xml version="1.0" encoding="UTF-8"?>
<svg width="50px" height="58px" viewBox="0 0 50 58" version="1.1" xmlns="http://www.w3.org/2000/svg" xmlns:xlink="http://www.w3.org/1999/xlink">
    <!-- Generator: Sketch 49.2 (51160) - http://www.bohemiancoding.com/sketch -->
    <title>creativity</title>
    <desc>Created with Sketch.</desc>
    <defs></defs>
    <g id="Final-Designs" stroke="none" stroke-width="1" fill="none" fill-rule="evenodd">
        <g id="Desktop:-Case-Study" transform="translate(-189.000000, -5890.000000)" fill="#FFFFFF" fill-rule="nonzero">
            <g id="Process" transform="translate(0.000000, 5828.000000)">
                <g id="Process-Header">
                    <g id="creativity" transform="translate(189.000000, 62.000000)">
                        <path d="M15.9321774,11.3948831 C14.1851905,12.0547957 12.9334764,13.7305139 12.9334764,15.7052901 C12.9334764,16.465791 13.136006,17.1735169 13.4630305,17.8072677 C12.0773492,18.3399791 11.0859014,19.6760428 11.0859014,21.2480152 C11.0859014,22.8204388 12.0773492,24.1560515 13.4630305,24.6892141 C13.136006,25.3229648 12.9334764,26.0306906 12.9334764,26.7907404 C12.9334764,28.7659678 14.1851905,30.4416859 15.9321774,31.1011476 C15.7936995,31.488164 15.704839,31.8995381 15.704839,32.3334656 C15.704839,34.3713915 17.3620634,36.0286157 19.3999891,36.0286157 C19.8600786,36.0286157 20.2962615,35.9334404 20.7026739,35.7800773 C21.3012413,37.0155529 22.556564,37.8761908 24.0189268,37.8761908 C26.0568527,37.8761908 27.7140769,36.2189665 27.7140769,34.1810406 L27.7140769,8.31498984 C27.7140769,6.27751513 26.0568527,4.61983972 24.0189268,4.61983972 C22.556564,4.61983972 21.3012413,5.48092887 20.7026739,6.71595335 C20.2962615,6.56259018 19.8600786,6.46741478 19.3999891,6.46741478 C17.3620634,6.46741478 15.704839,8.12509018 15.704839,10.1625649 C15.704839,10.5969435 15.7936995,11.0078666 15.9321774,11.3948831 Z M19.3999891,8.31498984 C20.4189521,8.31498984 21.2475642,9.14360208 21.2475642,10.1625649 L23.0951393,10.1625649 C23.0951393,9.27486282 22.7672127,8.4692552 22.2435226,7.83189596 C22.45778,7.04884169 23.1682124,6.46741478 24.0189268,6.46741478 C25.0378897,6.46741478 25.8665018,7.29602702 25.8665018,8.31498984 L25.8665018,34.1810406 C25.8665018,35.2000036 25.0378897,36.0286157 24.0189268,36.0286157 C23.1682124,36.0286157 22.45778,35.44764 22.2435226,34.6641346 C22.7672127,34.0267754 23.0951393,33.2216188 23.0951393,32.3334656 L21.2475642,32.3334656 C21.2475642,33.3524285 20.4189521,34.1810406 19.3999891,34.1810406 C18.3810263,34.1810406 17.5524141,33.3524285 17.5524141,32.3334656 C17.5524141,31.3145028 18.3810263,30.4858905 19.3999891,30.4858905 L19.3999891,28.6383155 C18.5001083,28.6383155 17.6854792,28.9748124 17.0445114,29.5106813 C15.7585162,29.2711641 14.7810515,28.145298 14.7810515,26.7907404 C14.7810515,25.2629727 16.0246464,24.0193778 17.5524141,24.0193778 C19.0806329,24.0193778 20.3237767,25.2629727 20.3237767,26.7907404 L22.1713517,26.7907404 C22.1713517,24.2440098 20.0995958,22.1718028 17.5524141,22.1718028 C16.5086425,22.1718028 15.5550844,22.5331084 14.7810515,23.119948 L14.7810515,23.0955903 C13.7620887,23.0955903 12.9334764,22.2669782 12.9334764,21.2480152 C12.9334764,20.2290524 13.7620887,19.4004402 14.7810515,19.4004402 L14.7810515,19.3765336 C15.5550844,19.9633732 16.5086425,20.3242277 17.5524141,20.3242277 C20.0995958,20.3242277 22.1713517,18.2524718 22.1713517,15.7052901 L20.3237767,15.7052901 C20.3237767,17.233509 19.0806329,18.4766527 17.5524141,18.4766527 C16.0246464,18.4766527 14.7810515,17.233509 14.7810515,15.7052901 C14.7810515,14.3511836 15.7585162,13.2253176 17.0445114,12.9858003 C17.6854792,13.5216693 18.5001083,13.857715 19.3999891,13.857715 L19.3999891,12.01014 C18.3810263,12.01014 17.5524141,11.1815278 17.5524141,10.1625649 C17.5524141,9.14360208 18.3810263,8.31498984 19.3999891,8.31498984 Z" id="Shape"></path>
                        <path d="M37.8757397,6.46741478 C37.4156502,6.46741478 36.9799185,6.56259018 36.573506,6.71595335 C35.9744875,5.48092887 34.719165,4.61983972 33.2568021,4.61983972 C31.2188763,4.61983972 29.561652,6.27751513 29.561652,8.31498984 L29.561652,34.1810406 C29.561652,36.2189665 31.2188763,37.8761908 33.2568021,37.8761908 C34.719165,37.8761908 35.9744875,37.0155529 36.573506,35.7800773 C36.9799185,35.9334404 37.4156502,36.0286157 37.8757397,36.0286157 C39.9136656,36.0286157 41.5708898,34.3713915 41.5708898,32.3334656 C41.5708898,31.8995381 41.4824805,31.488164 41.3435515,31.1011476 C43.0905383,30.4416859 44.3422524,28.7659678 44.3422524,26.7907404 C44.3422524,26.0306906 44.1401739,25.3229648 43.8131495,24.6892141 C45.1988308,24.1560515 46.1898275,22.8204388 46.1898275,21.2480152 C46.1898275,19.6760428 45.1988308,18.3399791 43.8131495,17.8072677 C44.1401739,17.1735169 44.3422524,16.465791 44.3422524,15.7052901 C44.3422524,13.7305139 43.0905383,12.0547957 41.3435515,11.3948831 C41.4824805,11.0078666 41.5708898,10.5969435 41.5708898,10.1625649 C41.5708898,8.12509018 39.9136656,6.46741478 37.8757397,6.46741478 Z M42.4946774,15.7052901 C42.4946774,17.233509 41.2515336,18.4766527 39.7233148,18.4766527 C38.1955471,18.4766527 36.9519522,17.233509 36.9519522,15.7052901 L35.1043771,15.7052901 C35.1043771,18.2524718 37.1765842,20.3242277 39.7233148,20.3242277 C40.7670865,20.3242277 41.7206445,19.9633732 42.4946774,19.3765336 L42.4946774,19.4004402 C43.5136403,19.4004402 44.3422524,20.2290524 44.3422524,21.2480152 C44.3422524,22.2669782 43.5136403,23.0955903 42.4946774,23.0955903 L42.4946774,23.119948 C41.7206445,22.5331084 40.7670865,22.1718028 39.7233148,22.1718028 C37.1765842,22.1718028 35.1043771,24.2440098 35.1043771,26.7907404 L36.9519522,26.7907404 C36.9519522,25.2629727 38.1955471,24.0193778 39.7233148,24.0193778 C41.2515336,24.0193778 42.4946774,25.2629727 42.4946774,26.7907404 C42.4946774,28.145298 41.5172127,29.2711641 40.2316686,29.5106813 C39.5902497,28.9748124 38.7756207,28.6383155 37.8757397,28.6383155 L37.8757397,30.4858905 C38.8947027,30.4858905 39.7233148,31.3145028 39.7233148,32.3334656 C39.7233148,33.3524285 38.8947027,34.1810406 37.8757397,34.1810406 C36.8567769,34.1810406 36.0281647,33.3524285 36.0281647,32.3334656 L34.1805896,32.3334656 C34.1805896,33.2216188 34.5085162,34.0267754 35.0322062,34.6641346 C34.817949,35.44764 34.1075166,36.0286157 33.2568021,36.0286157 C32.2378393,36.0286157 31.409227,35.2000036 31.409227,34.1810406 L31.409227,8.31498984 C31.409227,7.29602702 32.2378393,6.46741478 33.2568021,6.46741478 C34.1075166,6.46741478 34.817949,7.04884169 35.0322062,7.83189596 C34.5085162,8.4692552 34.1805896,9.27486282 34.1805896,10.1625649 L36.0281647,10.1625649 C36.0281647,9.14360208 36.8567769,8.31498984 37.8757397,8.31498984 C38.8947027,8.31498984 39.7233148,9.14360208 39.7233148,10.1625649 C39.7233148,11.1815278 38.8947027,12.01014 37.8757397,12.01014 L37.8757397,13.857715 C38.7756207,13.857715 39.5902497,13.5216693 40.2316686,12.9858003 C41.5172127,13.2253176 42.4946774,14.3511836 42.4946774,15.7052901 Z" id="Shape"></path>
                        <path d="M43.1848117,5.76194434 C38.8680896,1.70458649 33.2144017,-0.329730831 27.2810515,0.0437535797 L27.3956229,1.88726905 C32.8170106,1.55032113 37.97723,3.4042112 41.9200166,7.10793164 C45.8646074,10.8148095 48.0374025,15.8374531 48.0374025,21.2480152 C48.0374025,27.7682051 44.7874567,33.8143223 39.3435155,37.4219652 C37.4657188,38.6669133 36.0448543,40.4427685 35.1693309,42.4951284 L22.0680572,42.4951284 C21.1803551,40.4278833 19.7540776,38.6393982 17.8731236,37.3831733 C12.2627381,33.633444 9.03895427,27.3712651 9.24870092,20.6291499 L7.40202794,20.5718642 C7.17198326,27.9549473 10.7033956,34.8138893 16.8469435,38.9186092 C18.2037565,39.8257073 19.2872222,41.0607319 20.0423102,42.4951284 L17.5524141,42.4951284 L17.5524141,44.3427035 L20.7793555,44.3427035 C20.9584296,44.9412709 21.1018693,45.5547236 21.1744912,46.1902785 L19.3999891,46.1902785 L19.3999891,48.0378536 L21.2475642,48.0378536 L21.2475642,50.8092162 C21.2475642,51.3202764 21.6616448,51.7330037 22.1713517,51.7330037 L23.0951393,51.7330037 C23.0951393,54.7898925 25.5809758,57.2757289 28.6378644,57.2757289 C31.6947531,57.2757289 34.1805896,54.7898925 34.1805896,51.7330037 L35.1043771,51.7330037 C35.6145352,51.7330037 36.0281647,51.3202764 36.0281647,50.8092162 L36.0281647,48.0378536 L37.8757397,48.0378536 L37.8757397,46.1902785 L36.0931185,46.1902785 C36.1585233,45.5556258 36.2888821,44.9403688 36.4643476,44.3427035 L39.7233148,44.3427035 L39.7233148,42.4951284 L37.1932737,42.4951284 C37.937536,41.0765192 39.0146868,39.8568309 40.3647337,38.962814 C46.3255991,35.0096529 49.8849776,28.3879727 49.8849776,21.2480152 C49.8849776,15.4080363 47.4424436,9.76291859 43.1848117,5.76194434 Z M28.6378644,55.4281538 C26.5999387,55.4281538 24.9427143,53.7709296 24.9427143,51.7330037 L32.3330145,51.7330037 C32.3330145,53.7709296 30.6757903,55.4281538 28.6378644,55.4281538 Z M34.1805896,49.8854286 L23.0951393,49.8854286 L23.0951393,48.0378536 L34.1805896,48.0378536 L34.1805896,49.8854286 Z M34.2464456,46.1902785 L23.0211641,46.1902785 C22.9593678,45.5614896 22.8596818,44.9435263 22.7081229,44.3427035 L34.533776,44.3427035 C34.3867277,44.9426241 34.3014759,45.5632939 34.2464456,46.1902785 Z" id="Shape"></path>
                        <path d="M6.46696374,6.46741478 C8.50488961,6.46741478 10.1621139,8.12509018 10.1621139,10.1625649 C10.1621139,10.6736252 10.5761945,11.0863524 11.0859014,11.0863524 C11.5960595,11.0863524 12.0096889,10.6736252 12.0096889,10.1625649 C12.0096889,8.12509018 13.6669133,6.46741478 15.704839,6.46741478 C16.2149971,6.46741478 16.6286266,6.05468753 16.6286266,5.54362725 C16.6286266,5.03301824 16.2149971,4.61983972 15.704839,4.61983972 C13.6669133,4.61983972 12.0096889,2.96261547 12.0096889,0.924689607 C12.0096889,0.4140806 11.5960595,0.000902136259 11.0859014,0.000902136259 C10.5761945,0.000902136259 10.1621139,0.4140806 10.1621139,0.924689607 C10.1621139,2.96261547 8.50488961,4.61983972 6.46696374,4.61983972 C5.95725681,4.61983972 5.54317621,5.03301824 5.54317621,5.54362725 C5.54317621,6.05468753 5.95725681,6.46741478 6.46696374,6.46741478 Z M11.0859014,3.98518695 C11.4963734,4.60224815 12.0272806,5.13360635 12.6443418,5.54362725 C12.0272806,5.95409931 11.4963734,6.48500647 11.0859014,7.10206767 C10.6758805,6.48500647 10.1445222,5.95409931 9.52746097,5.54362725 C10.1445222,5.13360635 10.6758805,4.60224815 11.0859014,3.98518695 Z" id="Shape"></path>
                        <path d="M10.1621139,15.7052901 C10.6722719,15.7052901 11.0859014,15.2925628 11.0859014,14.7815025 C11.0859014,14.2708935 10.6722719,13.857715 10.1621139,13.857715 C8.12418811,13.857715 6.46696374,12.2004908 6.46696374,10.1625649 C6.46696374,9.65195589 6.0533343,9.23877737 5.54317621,9.23877737 C5.03346928,9.23877737 4.61938868,9.65195589 4.61938868,10.1625649 C4.61938868,12.2004908 2.96216443,13.857715 0.924238568,13.857715 C0.41453164,13.857715 0.000451068129,14.2708935 0.000451068129,14.7815025 C0.000451068129,15.2925628 0.41453164,15.7052901 0.924238568,15.7052901 C2.96216443,15.7052901 4.61938868,17.3629655 4.61938868,19.4004402 C4.61938868,19.9115005 5.03346928,20.3242277 5.54317621,20.3242277 C6.0533343,20.3242277 6.46696374,19.9115005 6.46696374,19.4004402 C6.46696374,17.3629655 8.12418811,15.7052901 10.1621139,15.7052901 Z M5.54317621,16.339943 C5.13315531,15.7228818 4.601797,15.1919746 3.9847358,14.7815025 C4.601797,14.3714816 5.13225312,13.8401234 5.54317621,13.2230622 C5.95364827,13.8401234 6.48455543,14.3705796 7.10161663,14.7815025 C6.48455543,15.1919746 5.95364827,15.7228818 5.54317621,16.339943 Z" id="Shape"></path>
                    </g>
                </g>
            </g>
        </g>
    </g>
</svg>