<?xml version="1.0" encoding="UTF-8"?>
<svg width="52px" height="60px" viewBox="0 0 52 60" version="1.1" xmlns="http://www.w3.org/2000/svg" xmlns:xlink="http://www.w3.org/1999/xlink">
    <!-- Generator: Sketch 49.2 (51160) - http://www.bohemiancoding.com/sketch -->
    <title>Pro-Icon</title>
    <desc>Created with Sketch.</desc>
    <defs></defs>
    <g id="Logos/Icons" stroke="none" stroke-width="1" fill="none" fill-rule="evenodd">
        <g id="Pro-Icon" fill="#85A3B5" fill-rule="nonzero">
            <path d="M16.5694645,11.8506785 C14.7525982,12.5369876 13.4508155,14.2797344 13.4508155,16.3335017 C13.4508155,17.1244226 13.6614462,17.8604575 14.0015517,18.5195584 C12.5604432,19.0735783 11.5293374,20.4630846 11.5293374,22.0979359 C11.5293374,23.7332564 12.5604432,25.1222936 14.0015517,25.6767827 C13.6614462,26.3358834 13.4508155,27.0719183 13.4508155,27.86237 C13.4508155,29.9166065 14.7525982,31.6593533 16.5694645,32.3451935 C16.4254475,32.7476905 16.3330326,33.1755196 16.3330326,33.6268042 C16.3330326,35.7462471 18.0565459,37.4697603 20.1759887,37.4697603 C20.6544818,37.4697603 21.108112,37.370778 21.5307809,37.2112803 C22.153291,38.496175 23.4588265,39.3912384 24.9796839,39.3912384 C27.0991268,39.3912384 28.82264,37.6677252 28.82264,35.5482823 L28.82264,8.64758943 C28.82264,6.52861573 27.0991268,4.80463331 24.9796839,4.80463331 C23.4588265,4.80463331 22.153291,5.70016602 21.5307809,6.98459148 C21.108112,6.82509379 20.6544818,6.72611137 20.1759887,6.72611137 C18.0565459,6.72611137 16.3330326,8.45009379 16.3330326,10.5690675 C16.3330326,11.0208213 16.4254475,11.4481813 16.5694645,11.8506785 Z M20.1759887,8.64758943 C21.2357102,8.64758943 22.0974668,9.50934616 22.0974668,10.5690675 L24.0189448,10.5690675 C24.0189448,9.64585733 23.6779012,8.8080254 23.1332635,8.1451718 C23.3560912,7.33079535 24.0949408,6.72611137 24.9796839,6.72611137 C26.0394053,6.72611137 26.9011619,7.5878681 26.9011619,8.64758943 L26.9011619,35.5482823 C26.9011619,36.6080037 26.0394053,37.4697603 24.9796839,37.4697603 C24.0949408,37.4697603 23.3560912,36.8655456 23.1332635,36.0507 C23.6779012,35.3878464 24.0189448,34.5504836 24.0189448,33.6268042 L22.0974668,33.6268042 C22.0974668,34.6865257 21.2357102,35.5482823 20.1759887,35.5482823 C19.1162674,35.5482823 18.2545107,34.6865257 18.2545107,33.6268042 C18.2545107,32.5670829 19.1162674,31.7053262 20.1759887,31.7053262 L20.1759887,29.7838481 C19.2401126,29.7838481 18.3928984,30.1338048 17.7262919,30.6911085 C16.3888568,30.4420107 15.3722936,29.27111 15.3722936,27.86237 C15.3722936,26.2734917 16.6656323,24.9801529 18.2545107,24.9801529 C19.8438582,24.9801529 21.1367277,26.2734917 21.1367277,27.86237 L23.0582058,27.86237 C23.0582058,25.2137702 20.9035797,23.0586749 18.2545107,23.0586749 C17.1689882,23.0586749 16.1772878,23.4344328 15.3722936,24.044746 L15.3722936,24.0194139 C14.3125722,24.0194139 13.4508155,23.1576573 13.4508155,22.0979359 C13.4508155,21.0382145 14.3125722,20.1764578 15.3722936,20.1764578 L15.3722936,20.1515949 C16.1772878,20.7619081 17.1689882,21.1371968 18.2545107,21.1371968 C20.9035797,21.1371968 23.0582058,18.9825707 23.0582058,16.3335017 L21.1367277,16.3335017 C21.1367277,17.9228494 19.8438582,19.2157188 18.2545107,19.2157188 C16.6656323,19.2157188 15.3722936,17.9228494 15.3722936,16.3335017 C15.3722936,14.9252309 16.3888568,13.7543303 17.7262919,13.5052324 C18.3928984,14.0625361 19.2401126,14.4120236 20.1759887,14.4120236 L20.1759887,12.4905456 C19.1162674,12.4905456 18.2545107,11.6287889 18.2545107,10.5690675 C18.2545107,9.50934616 19.1162674,8.64758943 20.1759887,8.64758943 Z" id="Shape"></path>
            <path d="M39.3907693,6.72611137 C38.9122762,6.72611137 38.4591152,6.82509379 38.0364462,6.98459148 C37.413467,5.70016602 36.1079316,4.80463331 34.5870742,4.80463331 C32.4676314,4.80463331 30.744118,6.52861573 30.744118,8.64758943 L30.744118,35.5482823 C30.744118,37.6677252 32.4676314,39.3912384 34.5870742,39.3912384 C36.1079316,39.3912384 37.413467,38.496175 38.0364462,37.2112803 C38.4591152,37.370778 38.9122762,37.4697603 39.3907693,37.4697603 C41.5102122,37.4697603 43.2337254,35.7462471 43.2337254,33.6268042 C43.2337254,33.1755196 43.1417797,32.7476905 42.9972936,32.3451935 C44.8141599,31.6593533 46.1159425,29.9166065 46.1159425,27.86237 C46.1159425,27.0719183 45.9057809,26.3358834 45.5656755,25.6767827 C47.0067841,25.1222936 48.0374206,23.7332564 48.0374206,22.0979359 C48.0374206,20.4630846 47.0067841,19.0735783 45.5656755,18.5195584 C45.9057809,17.8604575 46.1159425,17.1244226 46.1159425,16.3335017 C46.1159425,14.2797344 44.8141599,12.5369876 42.9972936,11.8506785 C43.1417797,11.4481813 43.2337254,11.0208213 43.2337254,10.5690675 C43.2337254,8.45009379 41.5102122,6.72611137 39.3907693,6.72611137 Z M44.1944645,16.3335017 C44.1944645,17.9228494 42.9015949,19.2157188 41.3122474,19.2157188 C39.723369,19.2157188 38.4300303,17.9228494 38.4300303,16.3335017 L36.5085522,16.3335017 C36.5085522,18.9825707 38.6636475,21.1371968 41.3122474,21.1371968 C42.3977699,21.1371968 43.3894702,20.7619081 44.1944645,20.1515949 L44.1944645,20.1764578 C45.2541859,20.1764578 46.1159425,21.0382145 46.1159425,22.0979359 C46.1159425,23.1576573 45.2541859,24.0194139 44.1944645,24.0194139 L44.1944645,24.044746 C43.3894702,23.4344328 42.3977699,23.0586749 41.3122474,23.0586749 C38.6636475,23.0586749 36.5085522,25.2137702 36.5085522,27.86237 L38.4300303,27.86237 C38.4300303,26.2734917 39.723369,24.9801529 41.3122474,24.9801529 C42.9015949,24.9801529 44.1944645,26.2734917 44.1944645,27.86237 C44.1944645,29.27111 43.1779012,30.4420107 41.8409353,30.6911085 C41.1738596,30.1338048 40.3266455,29.7838481 39.3907693,29.7838481 L39.3907693,31.7053262 C40.4504908,31.7053262 41.3122474,32.5670829 41.3122474,33.6268042 C41.3122474,34.6865257 40.4504908,35.5482823 39.3907693,35.5482823 C38.331048,35.5482823 37.4692913,34.6865257 37.4692913,33.6268042 L35.5478132,33.6268042 C35.5478132,34.5504836 35.8888568,35.3878464 36.4334945,36.0507 C36.2106669,36.8655456 35.4718173,37.4697603 34.5870742,37.4697603 C33.5273528,37.4697603 32.6655961,36.6080037 32.6655961,35.5482823 L32.6655961,8.64758943 C32.6655961,7.5878681 33.5273528,6.72611137 34.5870742,6.72611137 C35.4718173,6.72611137 36.2106669,7.33079535 36.4334945,8.1451718 C35.8888568,8.8080254 35.5478132,9.64585733 35.5478132,10.5690675 L37.4692913,10.5690675 C37.4692913,9.50934616 38.331048,8.64758943 39.3907693,8.64758943 C40.4504908,8.64758943 41.3122474,9.50934616 41.3122474,10.5690675 C41.3122474,11.6287889 40.4504908,12.4905456 39.3907693,12.4905456 L39.3907693,14.4120236 C40.3266455,14.4120236 41.1738596,14.0625361 41.8409353,13.5052324 C43.1779012,13.7543303 44.1944645,14.9252309 44.1944645,16.3335017 Z" id="Shape"></path>
            <path d="M44.9122041,5.99242212 C40.4228132,1.77276995 34.5429778,-0.342920065 28.3722936,0.0455037229 L28.4914478,1.96275982 C34.129691,1.61233398 39.4963192,3.54037965 43.5968173,7.39224891 C47.6991917,11.2474018 49.9588986,16.4709512 49.9588986,22.0979359 C49.9588986,28.8789333 46.578955,35.1668952 40.9172561,38.9188439 C38.9643476,40.2135898 37.4866484,42.0604792 36.5761042,44.1949335 L22.9507794,44.1949335 C22.0275693,42.0449986 20.5442407,40.1849741 18.5880485,38.8785003 C12.7532476,34.9787818 9.40051244,28.4661157 9.61864896,21.4543159 L7.69810906,21.3947388 C7.45886259,29.0731452 11.1315314,36.2064448 17.5208213,40.4753536 C18.9319067,41.4187356 20.0587111,42.7031611 20.8440026,44.1949335 L18.2545107,44.1949335 L18.2545107,46.1164116 L21.6105298,46.1164116 C21.7967667,46.7389217 21.9459441,47.3769125 22.0214709,48.0378897 L20.1759887,48.0378897 L20.1759887,49.9593677 L22.0974668,49.9593677 L22.0974668,52.8415848 C22.0974668,53.3730875 22.5281106,53.8023238 23.0582058,53.8023238 L24.0189448,53.8023238 C24.0189448,56.9814882 26.6042148,59.566758 29.783379,59.566758 C32.9625432,59.566758 35.5478132,56.9814882 35.5478132,53.8023238 L36.5085522,53.8023238 C37.0391166,53.8023238 37.4692913,53.3730875 37.4692913,52.8415848 L37.4692913,49.9593677 L39.3907693,49.9593677 L39.3907693,48.0378897 L37.5368432,48.0378897 C37.6048643,47.3778508 37.7404374,46.7379836 37.9229215,46.1164116 L41.3122474,46.1164116 L41.3122474,44.1949335 L38.6810046,44.1949335 C39.4550375,42.7195799 40.5752743,41.4511042 41.9793231,40.5213265 C48.178623,36.410039 51.8803767,29.5234917 51.8803767,22.0979359 C51.8803767,16.0243577 49.3401414,10.1534353 44.9122041,5.99242212 Z M29.783379,57.64528 C27.6639362,57.64528 25.9404229,55.9217667 25.9404229,53.8023238 L33.6263351,53.8023238 C33.6263351,55.9217667 31.9028219,57.64528 29.783379,57.64528 Z M35.5478132,51.8808458 L24.0189448,51.8808458 L24.0189448,49.9593677 L35.5478132,49.9593677 L35.5478132,51.8808458 Z M35.6163034,48.0378897 L23.9420107,48.0378897 C23.8777425,47.3839492 23.774069,46.7412674 23.6164478,46.1164116 L35.915127,46.1164116 C35.7621968,46.7403291 35.6735349,47.3858256 35.6163034,48.0378897 Z" id="Shape"></path>
            <path d="M6.72564229,6.72611137 C8.84508519,6.72611137 10.5685984,8.45009379 10.5685984,10.5690675 C10.5685984,11.1005702 10.9992422,11.5298065 11.5293374,11.5298065 C12.0599018,11.5298065 12.4900765,11.1005702 12.4900765,10.5690675 C12.4900765,8.45009379 14.2135898,6.72611137 16.3330326,6.72611137 C16.863597,6.72611137 17.2937716,6.29687503 17.2937716,5.76537234 C17.2937716,5.23433897 16.863597,4.80463331 16.3330326,4.80463331 C14.2135898,4.80463331 12.4900765,3.08112009 12.4900765,0.961677192 C12.4900765,0.430643824 12.0599018,0.000938221709 11.5293374,0.000938221709 C10.9992422,0.000938221709 10.5685984,0.430643824 10.5685984,0.961677192 C10.5685984,3.08112009 8.84508519,4.80463331 6.72564229,4.80463331 C6.19554709,4.80463331 5.76490326,5.23433897 5.76490326,5.76537234 C5.76490326,6.29687503 6.19554709,6.72611137 6.72564229,6.72611137 Z M11.5293374,4.14459443 C11.9562284,4.78633808 12.5083718,5.33895061 13.1501155,5.76537234 C12.5083718,6.19226328 11.9562284,6.74440673 11.5293374,7.38615037 C11.1029157,6.74440673 10.5503031,6.19226328 9.90855941,5.76537234 C10.5503031,5.33895061 11.1029157,4.78633808 11.5293374,4.14459443 Z" id="Shape"></path>
            <path d="M10.5685984,16.3335017 C11.0991628,16.3335017 11.5293374,15.9042653 11.5293374,15.3727626 C11.5293374,14.8417293 11.0991628,14.4120236 10.5685984,14.4120236 C8.44915563,14.4120236 6.72564229,12.6885104 6.72564229,10.5690675 C6.72564229,10.0380341 6.29546767,9.60832846 5.76490326,9.60832846 C5.23480806,9.60832846 4.80416423,10.0380341 4.80416423,10.5690675 C4.80416423,12.6885104 3.08065101,14.4120236 0.961208111,14.4120236 C0.431112905,14.4120236 0.000469110855,14.8417293 0.000469110855,15.3727626 C0.000469110855,15.9042653 0.431112905,16.3335017 0.961208111,16.3335017 C3.08065101,16.3335017 4.80416423,18.0574841 4.80416423,20.1764578 C4.80416423,20.7079605 5.23480806,21.1371968 5.76490326,21.1371968 C6.29546767,21.1371968 6.72564229,20.7079605 6.72564229,20.1764578 C6.72564229,18.0574841 8.44915563,16.3335017 10.5685984,16.3335017 Z M5.76490326,16.9935407 C5.33848152,16.351797 4.78586888,15.7996536 4.14412523,15.3727626 C4.78586888,14.9463409 5.33754324,14.3937284 5.76490326,13.7519847 C6.1917942,14.3937284 6.74393764,14.9454027 7.38568129,15.3727626 C6.74393764,15.7996536 6.1917942,16.351797 5.76490326,16.9935407 Z" id="Shape"></path>
        </g>
    </g>
</svg>