<?xml version="1.0" encoding="UTF-8"?>
<svg width="25px" height="22px" viewBox="0 0 25 22" version="1.1" xmlns="http://www.w3.org/2000/svg" xmlns:xlink="http://www.w3.org/1999/xlink">
    <!-- Generator: Sketch 49.2 (51160) - http://www.bohemiancoding.com/sketch -->
    <title>yoga-posture</title>
    <desc>Created with Sketch.</desc>
    <defs></defs>
    <g id="Final-Designs" stroke="none" stroke-width="1" fill="none" fill-rule="evenodd">
        <g id="Desktop:-Case-Study---User-Flows-and-Sitempas" transform="translate(-260.000000, -1567.000000)" fill="#000000" fill-rule="nonzero">
            <g id="Intro" transform="translate(-1.000000, 936.000000)">
                <g id="Roles/Dev/Specs" transform="translate(242.000000, 631.000000)">
                    <g id="Roles">
                        <g id="TITLE" transform="translate(19.200000, 0.000000)">
                            <g id="yoga-posture">
                                <path d="M12.5859803,7 C12.5906082,7 12.5952905,6.99972687 12.5999728,6.99972687 C12.6047095,6.99972687 12.6093374,7 12.6140197,7 C14.9259893,7 16.8,5.43303354 16.8,3.49993172 C16.8,1.56705751 14.9259893,0 12.6140197,0 C12.6093374,0 12.6047095,0.000273133426 12.5999728,0.000273133426 C12.5952905,0.000273133426 12.5906626,0 12.5859803,0 C10.2739563,0 8.4,1.56705751 8.4,3.49993172 C8.39989111,5.43303354 10.2738474,7 12.5859803,7 Z" id="Shape"></path>
                                <path d="M23.2298129,13.9546137 L18.2172001,11.0331894 L16.6321062,7.93052569 C16.3304314,7.34014236 15.6119735,6.98813672 14.8607927,7.00139023 L14.8605614,7 L11.9999692,7 L9.13949255,7 L9.13926129,7.00139023 C8.38802268,6.98813672 7.66968038,7.34014236 7.36794771,7.93052569 L5.78279607,11.0331894 L0.770183283,13.9546137 C-0.0648282105,14.4412861 -0.24966043,15.3783922 0.357620656,16.0477868 C0.723411539,16.4508601 1.29334461,16.6650478 1.87114042,16.6650478 C2.25236771,16.6650478 2.63706386,16.5718099 2.96891776,16.3782439 L8.38865863,13.2199247 L8.25054035,14.363387 L3.12605695,18.526609 C2.41511488,19.119541 2.21461499,19.9955235 2.61677105,20.7522244 C3.01886929,21.5088326 3.94574766,22 4.97183531,22 L7.42131028,22 C6.79009409,21.542059 6.38759114,20.8587621 6.38759114,20.0957125 C6.38759114,18.7199433 7.69251702,17.6007637 9.29651611,17.6007637 C9.29651611,17.6007637 11.1727626,17.6007637 12.0865171,17.6007637 C13.0003873,17.6007637 13.7255517,18.1995811 13.7255517,18.1995811 L9.29651611,18.1995811 C8.07750224,18.1995811 7.08569845,19.0501223 7.08569845,20.0957125 C7.08569845,21.1412564 8.07750224,21.9917977 9.29651611,21.9917977 L13.5858724,21.9917977 C13.6339739,21.9890172 13.6830004,21.9888782 13.7304081,21.9843368 L18.9153652,21.9843368 C19.9414528,21.9843368 20.8682734,21.493123 21.2704294,20.7364221 C21.6725277,19.9798602 21.4720856,19.1039241 20.7612014,18.5108994 L15.7483573,14.3424872 L15.7469698,14.3424872 L15.6113953,13.2199247 L21.0310784,16.3782439 C21.3628166,16.5718562 21.7476862,16.6650478 22.1287401,16.6650478 C22.7065937,16.6650478 23.2765268,16.4508601 23.6423177,16.0477868 C24.2496566,15.3783922 24.0648822,14.4412861 23.2298129,13.9546137 Z" id="Shape"></path>
                            </g>
                        </g>
                    </g>
                </g>
            </g>
        </g>
    </g>
</svg>