<?xml version="1.0" encoding="UTF-8"?>
<svg width="37px" height="20px" viewBox="0 0 37 20" version="1.1" xmlns="http://www.w3.org/2000/svg" xmlns:xlink="http://www.w3.org/1999/xlink">
    <!-- Generator: Sketch 49.2 (51160) - http://www.bohemiancoding.com/sketch -->
    <title>laptop</title>
    <desc>Created with Sketch.</desc>
    <defs></defs>
    <g id="Final-Designs" stroke="none" stroke-width="1" fill="none" fill-rule="evenodd">
        <g id="Desktop:-Case-Study---User-Flows-and-Sitempas" transform="translate(-1058.000000, -1568.000000)" fill="#000000" fill-rule="nonzero">
            <g id="Intro" transform="translate(-1.000000, 936.000000)">
                <g id="Roles/Dev/Specs" transform="translate(242.000000, 631.000000)">
                    <g id="Specs" transform="translate(801.000000, 0.000000)">
                        <g id="TITILE" transform="translate(16.843750, 0.000000)">
                            <g id="laptop" transform="translate(0.000000, 1.000000)">
                                <path d="M35.8230469,16.9166327 C35.7887946,16.8835714 35.7383371,16.8639796 35.6853013,16.8639796 L0.181941964,16.8639796 C0.12890625,16.8639796 0.0788169643,16.8832653 0.0441964286,16.9166327 C0.00957589286,16.9496939 -0.00589285714,16.9940816 0.00184151786,17.0378571 C0.00699776786,17.0654082 0.542511161,19.7978571 4.69881696,19.7978571 L31.1684263,19.7978571 C35.3243638,19.7978571 35.8598772,17.0654082 35.8654018,17.0378571 C35.8727679,16.9940816 35.8572991,16.9496939 35.8230469,16.9166327 Z M20.6036384,18.8409184 L15.2632366,18.8409184 L15.2632366,17.8203061 L20.6036384,17.8203061 L20.6036384,18.8409184 Z" id="Shape"></path>
                                <path d="M3.86976563,15.8017347 L31.9971094,15.8017347 C32.4037165,15.8017347 32.7337165,15.527449 32.7337165,15.1894898 L32.7337165,0.830510204 C32.7337165,0.49255102 32.4037165,0.218265306 31.9971094,0.218265306 L3.86976563,0.218265306 C3.46315848,0.218265306 3.13315848,0.49255102 3.13315848,0.830510204 L3.13315848,15.1894898 C3.13315848,15.527449 3.46315848,15.8017347 3.86976563,15.8017347 Z M5.71128348,2.36112245 L30.1555915,2.36112245 L30.1555915,13.6588776 L5.71128348,13.6588776 L5.71128348,2.36112245 Z" id="Shape"></path>
                            </g>
                        </g>
                    </g>
                </g>
            </g>
        </g>
    </g>
</svg>