<?xml version="1.0" encoding="UTF-8"?>
<svg width="373px" height="485px" viewBox="0 0 373 485" version="1.1" xmlns="http://www.w3.org/2000/svg" xmlns:xlink="http://www.w3.org/1999/xlink">
    <!-- Generator: Sketch 49.2 (51160) - http://www.bohemiancoding.com/sketch -->
    <title>Dashboard</title>
    <desc>Created with Sketch.</desc>
    <defs></defs>
    <g id="Prototype2_Test-A--Desktop-(space-bar)" stroke="none" stroke-width="1" fill="none" fill-rule="evenodd">
        <g id="Desktop:-Case-Study" transform="translate(-610.000000, -7605.000000)">
            <g id="Process" transform="translate(0.000000, 6666.000000)">
                <g id="Sketches" transform="translate(186.000000, 200.000000)">
                    <g id="Dekstop-Sketches-1" transform="translate(0.000000, 740.000000)">
                        <g id="Dashboard" transform="translate(424.000000, 0.000000)">
                            <polygon id="Fill-146" fill="#FFFFFF" points="0.126393629 483.376195 370.847893 483.376195 370.847893 24.9119939 0.126393629 24.9119939"></polygon>
                            <path d="M372.432664,12.7526624 L372.432664,22.6269941 L0.300936974,22.6269941 L0.300936974,12.7526624 L0.300936974,2.17502653 C0.300936974,1.39636832 1.2474876,0.0592038452 2.41553993,0.0592038452 L370.318061,0.0592038452 C371.486113,0.0592038452 372.432664,1.39636832 372.432664,2.17502653 L372.432664,12.7526624 Z" id="Stroke-147" stroke="#0A0B09" stroke-width="0.5"></path>
                            <path d="M9.4638719,7.11160136 C9.4638719,8.28032743 8.51732127,9.22742404 7.34926894,9.22742404 C6.18121661,9.22742404 5.23466598,8.28032743 5.23466598,7.11160136 C5.23466598,5.94287528 6.18121661,4.99577868 7.34926894,4.99577868 C8.51732127,4.99577868 9.4638719,5.94287528 9.4638719,7.11160136 Z" id="Stroke-149" stroke="#0A0B09" stroke-width="0.5"></path>
                            <path d="M17.0757042,7.11160136 C17.0757042,8.28032743 16.1291536,9.22742404 14.9611013,9.22742404 C13.7930489,9.22742404 12.8464983,8.28032743 12.8464983,7.11160136 C12.8464983,5.94287528 13.7930489,4.99577868 14.9611013,4.99577868 C16.1291536,4.99577868 17.0757042,5.94287528 17.0757042,7.11160136 Z" id="Stroke-151" stroke="#0A0B09" stroke-width="0.5"></path>
                            <path d="M24.6873889,7.11160136 C24.6873889,8.28032743 23.7408382,9.22742404 22.5727859,9.22742404 C21.4047336,9.22742404 20.4581829,8.28032743 20.4581829,7.11160136 C20.4581829,5.94287528 21.4047336,4.99577868 22.5727859,4.99577868 C23.7408382,4.99577868 24.6873889,5.94287528 24.6873889,7.11160136 Z" id="Stroke-153" stroke="#0A0B09" stroke-width="0.5"></path>
                            <path d="M302.657411,14.6814298 C302.657411,15.3906441 302.082984,15.9668807 301.372701,15.9668807 L71.3638528,15.9668807 C70.6550473,15.9668807 70.0791429,15.3906441 70.0791429,14.6814298 L70.0791429,8.00447262 C70.0791429,7.29525831 70.6550473,6.71902169 71.3638528,6.71902169 L301.372701,6.71902169 C302.082984,6.71902169 302.657411,7.29525831 302.657411,8.00447262 L302.657411,14.6814298 Z" id="Stroke-155" stroke="#0A0B09" stroke-width="0.5"></path>
                            <path d="M0.301379977,22.6262553 L0.301379977,483.716027" id="Stroke-157" stroke="#0A0B09" stroke-width="0.5"></path>
                            <path d="M372.432664,22.6262553 L372.432664,483.376195" id="Stroke-159" stroke="#0A0B09" stroke-width="0.5"></path>
                            <polyline id="Stroke-161" stroke="#0B0B09" stroke-width="0.5" stroke-linecap="round" points="40.3265907 11.3429512 42.9890412 8.52234682 40.1700628 11.3429512 42.9890412 14.1635556"></polyline>
                            <polyline id="Stroke-163" stroke="#0B0B09" stroke-width="0.5" stroke-linecap="round" points="56.7400148 11.343099 54.0775643 14.1637034 56.8965427 11.343099 54.0775643 8.52249457"></polyline>
                            <path d="M0.126541297,483.376047 L372.432516,483.376047" id="Stroke-165" stroke="#0A0B09" stroke-width="0.5"></path>
                            <g transform="translate(0.000000, 30.000000)">
                                <text id="DASHBOARD" font-family="Roboto-Medium, Roboto" font-size="10" font-weight="400" letter-spacing="-0.58571434" fill="#4A4A4A">
                                    <tspan x="12" y="57">DASHBOARD</tspan>
                                </text>
                                <text id="Upload" font-family="Roboto-Regular, Roboto" font-size="10" font-weight="normal" letter-spacing="-0.58571434" fill="#4A4A4A">
                                    <tspan x="11" y="109">Upload</tspan>
                                </text>
                                <text id="Features" font-family="Roboto-Medium, Roboto" font-size="10" font-weight="400" letter-spacing="-0.58571434" fill="#4A4A4A">
                                    <tspan x="11" y="88">Features</tspan>
                                </text>
                                <text id="Account" font-family="Roboto-Medium, Roboto" font-size="10" font-weight="400" letter-spacing="-0.58571434" fill="#4A4A4A">
                                    <tspan x="11" y="218">Account</tspan>
                                </text>
                                <text id="Sign-out" font-family="Roboto-Medium, Roboto" font-size="10" font-weight="400" letter-spacing="-0.58571434" fill="#4A4A4A">
                                    <tspan x="11" y="238">Sign out</tspan>
                                </text>
                                <text id="Create" font-family="Roboto-Regular, Roboto" font-size="10" font-weight="normal" letter-spacing="-0.58571434" fill="#4A4A4A">
                                    <tspan x="11" y="131">Create</tspan>
                                </text>
                                <text id="Files" font-family="Roboto-Regular, Roboto" font-size="10" font-weight="normal" letter-spacing="-0.58571434" fill="#4A4A4A">
                                    <tspan x="11" y="153">Files</tspan>
                                </text>
                                <text id="Tags" font-family="Roboto-Regular, Roboto" font-size="10" font-weight="normal" letter-spacing="-0.58571434" fill="#4A4A4A">
                                    <tspan x="11" y="175">Tags</tspan>
                                </text>
                                <text id="Favorites" font-family="Roboto-Regular, Roboto" font-size="10" font-weight="normal" letter-spacing="-0.58571434" fill="#4A4A4A">
                                    <tspan x="11" y="197">Favorites</tspan>
                                </text>
                                <path d="M78.5,26.5 L78.5,453.5" id="Line-5" stroke="#979797" stroke-linecap="square"></path>
                                <g id="Nav-Bar-Copy">
                                    <path d="M0.5,26.5 L368.5,26.5" id="Line" stroke="#979797" stroke-linecap="square"></path>
                                    <rect id="Rectangle-12" fill="#D8D8D8" x="7" y="0" width="41" height="20" rx="8"></rect>
                                    <text id="LOGO" font-family="Roboto-Medium, Roboto" font-size="12" font-weight="400" letter-spacing="-0.7028572" fill="#4A4A4A">
                                        <tspan x="13" y="14">LOGO</tspan>
                                    </text>
                                </g>
                                <g id="Group-7" transform="translate(106.000000, 54.000000)">
                                    <text id="Placeholder-Name" font-family="Roboto-Regular, Roboto" font-size="12" font-weight="normal" letter-spacing="-0.702857256" fill="#4A4A4A">
                                        <tspan x="62" y="192">Placeholder Name</tspan>
                                    </text>
                                    <text id="Placeholder-Name" font-family="Roboto-Regular, Roboto" font-size="12" font-weight="normal" letter-spacing="-0.702857256" fill="#4A4A4A">
                                        <tspan x="62" y="217">Placeholder Name</tspan>
                                    </text>
                                    <text id="Placeholder-Name" font-family="Roboto-Regular, Roboto" font-size="12" font-weight="normal" letter-spacing="-0.702857256" fill="#4A4A4A">
                                        <tspan x="62" y="242">Placeholder Name</tspan>
                                    </text>
                                    <text id="Placeholder-Name" font-family="Roboto-Regular, Roboto" font-size="12" font-weight="normal" letter-spacing="-0.702857256" fill="#4A4A4A">
                                        <tspan x="62" y="267">Placeholder Name</tspan>
                                    </text>
                                    <text id="Placeholder-Name" font-family="Roboto-Regular, Roboto" font-size="12" font-weight="normal" letter-spacing="-0.702857256" fill="#4A4A4A">
                                        <tspan x="62" y="292">Placeholder Name</tspan>
                                    </text>
                                    <text id="Placeholder-Name" font-family="Roboto-Regular, Roboto" font-size="12" font-weight="normal" letter-spacing="-0.702857256" fill="#4A4A4A">
                                        <tspan x="62" y="317">Placeholder Name</tspan>
                                    </text>
                                    <text id="Placeholder-Name-Copy" font-family="Roboto-Regular, Roboto" font-size="12" font-weight="normal" letter-spacing="-0.702857256" fill="#4A4A4A">
                                        <tspan x="62" y="342">Placeholder Name</tspan>
                                    </text>
                                    <text id="Placeholder-Name-Copy-2" font-family="Roboto-Regular, Roboto" font-size="12" font-weight="normal" letter-spacing="-0.702857256" fill="#4A4A4A">
                                        <tspan x="62" y="367">Placeholder Name</tspan>
                                    </text>
                                    <text id="Placeholder-Name-Copy-3" font-family="Roboto-Regular, Roboto" font-size="12" font-weight="normal" letter-spacing="-0.702857256" fill="#4A4A4A">
                                        <tspan x="62" y="392">Placeholder Name</tspan>
                                    </text>
                                    <rect id="Rectangle-6" fill="#D8D8D8" x="17" y="178" width="25" height="20"></rect>
                                    <rect id="Rectangle-6-Copy-9" fill="#D8D8D8" x="17" y="203" width="25" height="20"></rect>
                                    <rect id="Rectangle-6-Copy-10" fill="#D8D8D8" x="17" y="228" width="25" height="20"></rect>
                                    <rect id="Rectangle-6-Copy-11" fill="#D8D8D8" x="17" y="253" width="25" height="20"></rect>
                                    <rect id="Rectangle-6-Copy-12" fill="#D8D8D8" x="17" y="278" width="25" height="20"></rect>
                                    <rect id="Rectangle-6-Copy-13" fill="#D8D8D8" x="17" y="303" width="25" height="20"></rect>
                                    <rect id="Rectangle-6-Copy-14" fill="#D8D8D8" x="17" y="328" width="25" height="20"></rect>
                                    <rect id="Rectangle-6-Copy-15" fill="#D8D8D8" x="17" y="353" width="25" height="20"></rect>
                                    <rect id="Rectangle-6-Copy-16" fill="#D8D8D8" x="17" y="378" width="25" height="20"></rect>
                                    <text id="Folders" font-family="Roboto-Regular, Roboto" font-size="14" font-weight="normal" letter-spacing="-0.820000112" fill="#4A4A4A">
                                        <tspan x="17" y="155">Folders</tspan>
                                    </text>
                                    <rect id="Rectangle-5" fill="#C9CBCD" x="65" y="69.40625" width="39.52" height="39.8284314"></rect>
                                    <rect id="Rectangle-5" fill="#C9CBCD" x="116" y="69.40625" width="39.52" height="39.8284314"></rect>
                                    <rect id="Rectangle-5" fill="#C9CBCD" x="173" y="69.40625" width="39.52" height="39.8284314"></rect>
                                    <rect id="Rectangle-5" fill="#C9CBCD" x="14" y="69.40625" width="39.52" height="39.8284314"></rect>
                                    <text id="Recent-History" font-family="Avenir-Book, Avenir" font-size="14" font-weight="normal" letter-spacing="-0.264444441" fill="#4A4A4A">
                                        <tspan x="87.2683333" y="54">Recent </tspan>
                                        <tspan x="87.0365555" y="73">History</tspan>
                                    </text>
                                    <rect id="Rectangle-13" fill="#D8D8D8" x="0" y="0" width="215" height="25" rx="4"></rect>
                                    <g id="Resources/Search-Copy" transform="translate(10.000000, 5.000000)" fill="#4A4A4A">
                                        <path d="M14.7248813,13.4728583 L10.6180574,9.36426549 C11.3542114,8.36018479 11.7485662,7.14627522 11.7430678,5.90123979 C11.7290216,2.65128419 9.10049537,0.0188306734 5.85069157,5.97005768e-05 C4.29547726,-0.0069770249 2.80204325,0.608292772 1.70308439,1.70880438 C0.604125521,2.809316 -0.00906965074,4.30365189 0.000101411893,5.8589163 C0.0141476612,9.10916777 2.64291372,11.7418611 5.89301339,11.7606321 C7.14307166,11.7660502 8.36136831,11.3670767 9.36608142,10.6232553 L9.37036717,10.6200409 L13.4734411,14.7254193 C13.6952812,14.9581594 14.0258381,15.0523671 14.3370365,14.9715413 C14.6482349,14.8907156 14.8911764,14.6475565 14.9717326,14.3362768 C15.0522888,14.0249971 14.957802,13.6945079 14.7248813,13.4728583 L14.7248813,13.4728583 Z M5.88872763,10.5841463 C3.28878994,10.5691895 1.18581128,8.46326025 1.17439805,5.86320222 C1.16738076,4.61915184 1.65797726,3.42392321 2.53697883,2.54357895 C3.41598039,1.66323469 4.61043113,1.17084213 5.8544416,1.17600979 C8.4543793,1.19096658 10.557358,3.29689584 10.5687712,5.89695386 C10.5757885,7.14100425 10.085192,8.33623288 9.20619041,9.21657714 C8.32718884,10.0969214 7.1327381,10.589314 5.88872763,10.5841463 Z" id="Search"></path>
                                    </g>
                                </g>
                            </g>
                        </g>
                    </g>
                </g>
            </g>
        </g>
    </g>
</svg>