<?xml version="1.0" encoding="UTF-8"?>
<svg width="374px" height="485px" viewBox="0 0 374 485" version="1.1" xmlns="http://www.w3.org/2000/svg" xmlns:xlink="http://www.w3.org/1999/xlink">
    <!-- Generator: Sketch 49.2 (51160) - http://www.bohemiancoding.com/sketch -->
    <title>Home</title>
    <desc>Created with Sketch.</desc>
    <defs></defs>
    <g id="Prototype2_Test-A--Desktop-(space-bar)" stroke="none" stroke-width="1" fill="none" fill-rule="evenodd">
        <g id="Desktop:-Case-Study" transform="translate(-185.000000, -7605.000000)">
            <g id="Process" transform="translate(0.000000, 6666.000000)">
                <g id="Sketches" transform="translate(186.000000, 200.000000)">
                    <g id="Dekstop-Sketches-1" transform="translate(0.000000, 740.000000)">
                        <g id="Home">
                            <polygon id="Fill-124" fill="#FFFFFF" points="0.0236287565 483.376195 370.775062 483.376195 370.775062 24.9119939 0.0236287565 24.9119939"></polygon>
                            <path d="M372.359666,12.7526624 L372.359666,22.6269941 L0.197890835,22.6269941 L0.197890835,12.7526624 L0.197890835,2.17502653 C0.197890835,1.39636832 1.14451789,0.0592038452 2.31266454,0.0592038452 L370.244892,0.0592038452 C371.413039,0.0592038452 372.359666,1.39636832 372.359666,2.17502653 L372.359666,12.7526624 Z" id="Stroke-125" stroke="#0A0B09" stroke-width="0.5"></path>
                            <path d="M9.36171331,7.11160136 C9.36171331,8.28032743 8.41508626,9.22742404 7.24693961,9.22742404 C6.07879296,9.22742404 5.1321659,8.28032743 5.1321659,7.11160136 C5.1321659,5.94287528 6.07879296,4.99577868 7.24693961,4.99577868 C8.41508626,4.99577868 9.36171331,5.94287528 9.36171331,7.11160136 Z" id="Stroke-127" stroke="#0A0B09" stroke-width="0.5"></path>
                            <path d="M16.9740126,7.11160136 C16.9740126,8.28032743 16.0273855,9.22742404 14.8592389,9.22742404 C13.6910922,9.22742404 12.7444652,8.28032743 12.7444652,7.11160136 C12.7444652,5.94287528 13.6910922,4.99577868 14.8592389,4.99577868 C16.0273855,4.99577868 16.9740126,5.94287528 16.9740126,7.11160136 Z" id="Stroke-129" stroke="#0A0B09" stroke-width="0.5"></path>
                            <path d="M24.5863118,7.11160136 C24.5863118,8.28032743 23.6396848,9.22742404 22.4715381,9.22742404 C21.3033915,9.22742404 20.3567644,8.28032743 20.3567644,7.11160136 C20.3567644,5.94287528 21.3033915,4.99577868 22.4715381,4.99577868 C23.6396848,4.99577868 24.5863118,5.94287528 24.5863118,7.11160136 Z" id="Stroke-131" stroke="#0A0B09" stroke-width="0.5"></path>
                            <path d="M302.578779,14.6814298 C302.578779,15.3906441 302.004305,15.9668807 301.293966,15.9668807 L71.2665447,15.9668807 C70.557682,15.9668807 69.9817311,15.3906441 69.9817311,14.6814298 L69.9817311,8.00447262 C69.9817311,7.29525831 70.557682,6.71902169 71.2665447,6.71902169 L301.293966,6.71902169 C302.004305,6.71902169 302.578779,7.29525831 302.578779,8.00447262 L302.578779,14.6814298 Z" id="Stroke-133" stroke="#0A0B09" stroke-width="0.5"></path>
                            <path d="M0.198481554,22.6262553 L0.198481554,483.716027" id="Stroke-135" stroke="#0A0B09" stroke-width="0.5"></path>
                            <path d="M372.359666,22.6262553 L372.359666,483.376195" id="Stroke-137" stroke="#0A0B09" stroke-width="0.5"></path>
                            <polyline id="Stroke-139" stroke="#0B0B09" stroke-width="0.5" stroke-linecap="round" points="40.2269241 11.3429512 42.8895896 8.52234682 40.0703836 11.3429512 42.8895896 14.1635556"></polyline>
                            <polyline id="Stroke-141" stroke="#0B0B09" stroke-width="0.5" stroke-linecap="round" points="56.6415259 11.343099 53.9788604 14.1637034 56.7980664 11.343099 53.9788604 8.52249457"></polyline>
                            <path d="M0.0236287565,483.376047 L372.359666,483.376047" id="Stroke-143" stroke="#0A0B09" stroke-width="0.5"></path>
                            <g transform="translate(2.000000, 30.000000)">
                                <g>
                                    <rect id="Rectangle-6" fill="#D8D8D8" x="129" y="302" width="45" height="29"></rect>
                                    <rect id="Rectangle-6-Copy-6" fill="#D8D8D8" x="64" y="302" width="45" height="29"></rect>
                                    <rect id="Rectangle-6-Copy-6" fill="#D8D8D8" x="57" y="409" width="76" height="44"></rect>
                                    <rect id="Rectangle-6-Copy-7" fill="#D8D8D8" x="148" y="409" width="76" height="44"></rect>
                                    <rect id="Rectangle-6-Copy-8" fill="#D8D8D8" x="239" y="409" width="76" height="44"></rect>
                                    <rect id="Rectangle-6" fill="#D8D8D8" x="194" y="302" width="45" height="29"></rect>
                                    <rect id="Rectangle-6" fill="#D8D8D8" x="264" y="302" width="45" height="29"></rect>
                                    <rect id="Rectangle-12" fill="#D8D8D8" x="160" y="217" width="52" height="20"></rect>
                                    <text id="Join" font-family="Roboto-Medium, Roboto" font-size="12" font-weight="400" letter-spacing="-0.7028572" fill="#4A4A4A">
                                        <tspan x="175" y="231">Join</tspan>
                                    </text>
                                    <text id="Free-Signup" font-family="Roboto-Medium, Roboto" font-size="13" font-weight="400" letter-spacing="-0.761428654" fill="#4A4A4A">
                                        <tspan x="155" y="207">Free Signup</tspan>
                                    </text>
                                    <text id="Features" font-family="Roboto-Regular, Roboto" font-size="13" font-weight="normal" letter-spacing="-0.761428654" fill="#4A4A4A">
                                        <tspan x="161" y="279">Features</tspan>
                                    </text>
                                    <text id="Plans-and-Pricing" font-family="Roboto-Regular, Roboto" font-size="13" font-weight="normal" letter-spacing="-0.761428654" fill="#4A4A4A">
                                        <tspan x="140" y="385">Plans and Pricing</tspan>
                                    </text>
                                    <rect id="Rectangle-3" fill="#F0F0F0" x="0" y="27" width="369" height="138"></rect>
                                    <text id="Image" font-family="Roboto-Medium, Roboto" font-size="14" font-weight="400" letter-spacing="-0.820000052" fill="#9B9B9B">
                                        <tspan x="167" y="101">Image</tspan>
                                    </text>
                                    <g id="Nav-Bar-Copy" transform="translate(1.000000, 0.000000)">
                                        <path d="M0.5,26.5 L368.5,26.5" id="Line" stroke="#979797" stroke-linecap="square"></path>
                                        <rect id="Rectangle-12" fill="#D8D8D8" x="7" y="0" width="41" height="20" rx="8"></rect>
                                        <text id="LOGO" font-family="Roboto-Medium, Roboto" font-size="12" font-weight="400" letter-spacing="-0.7028572" fill="#4A4A4A">
                                            <tspan x="13" y="14">LOGO</tspan>
                                        </text>
                                    </g>
                                    <text id="Upload" font-family="Roboto-Regular, Roboto" font-size="12" font-weight="normal" letter-spacing="-0.702857196" fill="#4A4A4A">
                                        <tspan x="70" y="350">Upload</tspan>
                                    </text>
                                    <text id="Create" font-family="Roboto-Regular, Roboto" font-size="12" font-weight="normal" letter-spacing="-0.702857196" fill="#4A4A4A">
                                        <tspan x="136" y="350">Create</tspan>
                                    </text>
                                    <text id="Share" font-family="Roboto-Regular, Roboto" font-size="12" font-weight="normal" letter-spacing="-0.702857196" fill="#4A4A4A">
                                        <tspan x="203" y="350">Share</tspan>
                                    </text>
                                    <text id="Collaborate" font-family="Roboto-Regular, Roboto" font-size="12" font-weight="normal" letter-spacing="-0.702857196" fill="#4A4A4A">
                                        <tspan x="259" y="350">Collaborate</tspan>
                                    </text>
                                </g>
                                <g id="Buttons" transform="translate(262.000000, 0.000000)">
                                    <rect id="Rectangle-12" fill="#D8D8D8" x="0" y="0" width="44" height="20"></rect>
                                    <rect id="Rectangle-12-Copy" fill="#D8D8D8" x="54" y="0" width="44" height="20"></rect>
                                    <text id="Signup" font-family="Roboto-Medium, Roboto" font-size="12" font-weight="400" letter-spacing="-0.7028572" fill="#4A4A4A">
                                        <tspan x="5" y="14">Signup</tspan>
                                    </text>
                                    <text id="Login" font-family="Roboto-Medium, Roboto" font-size="12" font-weight="400" letter-spacing="-0.7028572" fill="#4A4A4A">
                                        <tspan x="63" y="14">Login</tspan>
                                    </text>
                                </g>
                                <text id="Join" font-family="Roboto-Regular, Roboto" font-size="12" font-weight="normal" letter-spacing="-0.702857196" fill="#4A4A4A">
                                    <tspan x="175" y="231">Join</tspan>
                                </text>
                            </g>
                        </g>
                    </g>
                </g>
            </g>
        </g>
    </g>
</svg>