<?xml version="1.0" encoding="UTF-8"?>
<svg width="52px" height="56px" viewBox="0 0 52 56" version="1.1" xmlns="http://www.w3.org/2000/svg" xmlns:xlink="http://www.w3.org/1999/xlink">
    <!-- Generator: Sketch 49.2 (51160) - http://www.bohemiancoding.com/sketch -->
    <title>Shape</title>
    <desc>Created with Sketch.</desc>
    <defs></defs>
    <g id="Final-Designs" stroke="none" stroke-width="1" fill="none" fill-rule="evenodd">
        <g id="Desktop:-Case-Study---User-Flows-and-Sitempas" transform="translate(-853.000000, -3404.000000)" fill="#74BB44" fill-rule="nonzero">
            <g id="Discovery" transform="translate(0.000000, 1882.000000)">
                <g id="Survey-Highlights" transform="translate(242.000000, 974.000000)">
                    <g id="Evernote" transform="translate(600.000000, 548.000000)">
                        <path d="M44.4445766,22.9865073 C47.2118651,23.0718967 47.5984885,25.4043764 47.6081082,26.983468 C46.4418251,26.5205674 44.9984008,26.2239515 43.4239643,26.174924 C42.6224135,26.1485554 41.8198873,26.1917943 41.0277243,26.3040296 C41.2398174,24.7800939 41.9448095,22.908472 44.4445766,22.9865073 Z M15.7232385,9.75496887 C14.2926406,9.75496887 13.0974981,9.97191522 12.1130745,10.3690373 C12.0681822,10.3866055 11.7479812,10.5283765 11.5139,10.6317426 C11.520557,10.6085123 11.5353143,10.587768 11.5560438,10.5725011 L22.8707311,0.565595541 C22.8884919,0.548847378 22.911745,0.537548049 22.9371534,0.533319154 L22.7388028,0.866297069 C22.3210297,1.60987965 22.0823677,2.49605032 22.0823677,3.51214367 L22.0823677,3.52726045 C22.0823677,4.7639772 22.1529127,9.21607578 22.1529127,9.21811859 C22.1519054,9.51439926 21.8827257,9.75429584 21.5505316,9.75496887 L15.7232385,9.75496887 Z M58.2281097,5.90360497 C56.7929309,5.44070438 53.8804296,4.96105276 50.2230829,4.57700461 C47.2794319,4.26731473 43.8195196,4.29264556 41.7297381,4.34943566 C41.4791658,2.81732869 40.2744036,1.41759576 38.9258028,0.933041396 C35.3353364,-0.355562707 29.7838102,-0.0442385706 28.3600836,0.311618808 C27.2272406,0.594343615 25.9739214,1.17245864 25.2771749,2.06353206 C24.8094706,2.65962381 24.5062186,3.42200024 24.5039282,4.48793813 C24.5039282,5.09097543 24.5227097,6.51154502 24.5401169,7.77440972 C24.5566079,9.04013436 24.5763056,10.1730764 24.5763056,10.1812476 C24.5745382,11.3109306 23.547917,12.2262002 22.2813022,12.2273254 L16.4572157,12.2273254 C15.2153486,12.2273254 14.2657394,12.4132211 13.5405917,12.706977 C12.8145277,13.0011416 12.3000988,13.3974466 11.9093527,13.8664756 C11.1319833,14.7971795 10.9968484,15.946464 11.000055,17.1198537 C11.000055,17.1198537 11.011049,18.0779312 11.2698668,19.9332106 C11.4856246,21.3680799 13.2309265,31.395005 14.8887344,34.4445107 C15.5314269,35.6301573 15.960194,36.1257428 17.2222169,36.648702 C20.0357719,37.7232197 26.4617814,38.9186717 29.4746032,39.2610465 C32.4805537,39.6042385 34.3678619,40.3249416 35.4920013,38.2220737 C35.495666,38.2155367 35.717837,37.6999316 36.0220051,36.9375552 C36.9986413,34.2998798 37.1346924,31.9584118 37.1346924,30.2649229 C37.1346924,30.0921013 37.4182467,30.0847471 37.4182467,30.2649229 C37.4182467,31.461192 37.1612613,35.6938929 40.7466887,36.8284692 C42.1626279,37.2754359 45.0975754,37.6750094 48.0819959,37.9871506 C50.7787394,38.2645641 52.7356765,39.2099763 52.7356765,45.3829374 C52.7356765,49.1376209 51.8515734,49.6520002 47.2290426,49.6520002 C43.4814532,49.6520002 42.0526876,49.7382068 42.0526876,47.0845975 C42.0526876,44.937605 44.4328947,45.1631311 46.1965201,45.1631311 C46.9848835,45.1631311 46.4122779,44.640989 46.4122779,43.3160229 C46.4122779,41.9975938 47.3376086,41.2364431 46.4626672,41.2176492 C40.3641881,41.0672985 36.775096,41.2111122 36.775096,48.0148929 C36.775096,54.1903054 39.4246568,55.3371385 48.0819959,55.3371385 C54.8685179,55.3371385 57.259261,55.1393946 60.0622801,47.3840734 C60.6170204,45.8531921 61.959208,41.1816958 62.7695595,33.336491 C63.2821561,28.3773671 62.2849061,13.4060264 61.4947103,9.62805487 C61.032045,7.42018659 59.5593033,6.3317778 58.2281097,5.90360497 Z M49.6633037,26.1748102 C48.825009,26.1490708 48.0187803,26.1960554 47.2670636,26.3039157 C47.4791567,24.77998 48.1841488,22.9079495 50.6839159,22.9863934 C53.4512045,23.0717828 53.8378278,25.4042625 53.8474476,26.9833541 C52.6811644,26.5200449 51.2368239,26.2242461 49.6633037,26.1748102 Z" id="Shape"></path>
                    </g>
                </g>
            </g>
        </g>
    </g>
</svg>