<?xml version="1.0" encoding="UTF-8"?>
<svg width="57px" height="44px" viewBox="0 0 57 44" version="1.1" xmlns="http://www.w3.org/2000/svg" xmlns:xlink="http://www.w3.org/1999/xlink">
    <!-- Generator: Sketch 49.2 (51160) - http://www.bohemiancoding.com/sketch -->
    <title>ICON</title>
    <desc>Created with Sketch.</desc>
    <defs>
        <linearGradient x1="15.0925607%" y1="0%" x2="84.9074393%" y2="100%" id="linearGradient-1">
            <stop stop-color="#F6C338" offset="0%"></stop>
            <stop stop-color="#FFD351" offset="52.3%"></stop>
            <stop stop-color="#F6C338" offset="100%"></stop>
        </linearGradient>
        <linearGradient x1="56.6381557%" y1="0%" x2="43.3618443%" y2="100%" id="linearGradient-2">
            <stop stop-color="#286EE6" offset="0%"></stop>
            <stop stop-color="#4286FB" offset="52.1%"></stop>
            <stop stop-color="#286EE6" offset="100%"></stop>
        </linearGradient>
        <linearGradient x1="65.289%" y1="33.2877582%" x2="35.995%" y2="66.7122418%" id="linearGradient-3">
            <stop stop-color="#069B5A" offset="0%"></stop>
            <stop stop-color="#11AA62" offset="53.1%"></stop>
            <stop stop-color="#069B5A" offset="100%"></stop>
        </linearGradient>
    </defs>
    <g id="Final-Designs" stroke="none" stroke-width="1" fill="none" fill-rule="evenodd">
        <g id="Desktop:-Case-Study---User-Flows-and-Sitempas" transform="translate(-263.000000, -3404.000000)" fill-rule="nonzero">
            <g id="Discovery" transform="translate(0.000000, 1882.000000)">
                <g id="Survey-Highlights" transform="translate(242.000000, 974.000000)">
                    <g id="GoogleDrive" transform="translate(0.000000, 548.000000)">
                        <g id="ICON" transform="translate(21.000000, 0.000000)">
                            <polygon id="Shape" fill="url(#linearGradient-1)" points="18.2718987 0 37.7617187 0 56.0909091 28.1835938 36.5572917 28.1835938"></polygon>
                            <polygon id="Shape" fill="url(#linearGradient-2)" points="56.0909091 28.1835938 46.3241004 43.2421875 9.75331439 43.2421875 19.5420218 28.1835938"></polygon>
                            <polygon id="Shape" fill="url(#linearGradient-3)" points="9.75331439 43.2421875 0.0303030303 28.1835938 18.2718987 0 28.0606061 15.0976562"></polygon>
                            <path d="M9.75331439,43.2421875 L27.9511127,28.1835938 L19.5420218,28.1835938 L9.75331439,43.2421875 Z M56.0909091,28.1835938 L36.5791903,28.1835938 L32.2870502,21.5820312 L56.0909091,28.1835938 Z M18.2718987,0 L23.899858,21.484375 L28.0606061,15.0976562 L18.2718987,0 Z" id="Shape" fill="#000000" opacity="0.1"></path>
                        </g>
                    </g>
                </g>
            </g>
        </g>
    </g>
</svg>