<?xml version="1.0" encoding="UTF-8"?>
<svg width="250px" height="250px" viewBox="0 0 250 250" version="1.1" xmlns="http://www.w3.org/2000/svg" xmlns:xlink="http://www.w3.org/1999/xlink">
    <!-- Generator: Sketch 49.2 (51160) - http://www.bohemiancoding.com/sketch -->
    <title>Dribbble</title>
    <desc>Created with Sketch.</desc>
    <defs></defs>
    <g id="Final-Designs" stroke="none" stroke-width="1" fill="none" fill-rule="evenodd">
        <g id="Dribbble" fill="#4A4A4A" fill-rule="nonzero">
            <path d="M124.995059,0 C55.95803,0.00523113478 0,55.9667486 0,125.005522 C0,194.032089 55.95803,250 124.995059,250 C194.032089,250 249.992444,194.032089 250,125.005522 C249.992444,55.9667486 194.032089,0.00523113478 124.995059,0 Z M201.584104,64.811435 C213.780204,80.2985002 221.416498,99.4752591 222.379608,120.417235 C208.268332,117.42212 194.935332,115.964377 182.505574,115.964377 L182.505574,115.961471 L182.413739,115.961471 C172.406578,115.961471 163.014947,116.869945 154.163286,118.439866 C152.012127,113.167464 149.831325,108.103144 147.634248,103.25272 C167.347489,94.606235 186.269085,82.2944687 201.584104,64.811435 Z M124.995059,27.4808947 C147.998103,27.4808947 169.100501,35.5228926 185.807583,48.9111102 C173.022689,64.2174106 156.14763,75.3027665 137.917706,83.1302878 C125.108401,58.3608646 112.730955,40.6412674 104.269885,29.8081685 C110.967481,28.321945 117.880716,27.4808947 124.995059,27.4808947 Z M81.920152,37.6467333 C88.6892404,45.6422322 102.241948,63.2287261 116.717079,90.6863714 C87.2779965,99.4496846 57.6337369,101.508427 39.6973382,101.503196 C39.1858494,101.503196 38.6801731,101.503196 38.1837965,101.497965 L38.1675219,101.497965 C35.1468321,101.497965 32.5492831,101.450303 30.3806871,101.384042 C37.3782017,73.3835212 56.560773,50.1939007 81.920152,37.6467333 Z M27.4727574,125.005522 C27.4727574,124.546926 27.4890321,124.080773 27.5163502,123.600671 C30.3010576,123.70355 33.872179,123.791898 38.170428,123.791898 L38.19484,123.791898 C57.798227,123.664026 92.0255419,122.0261 126.712615,111.07501 C128.60338,115.20935 130.474964,119.513993 132.325042,123.983126 C109.160996,131.730436 90.9171226,144.073008 77.4231198,156.364431 C64.4324684,168.196677 55.6557867,179.916162 50.5275309,187.739615 C36.1773657,170.74947 27.4803135,148.915295 27.4727574,125.005522 Z M124.995059,222.531892 C103.292244,222.531892 83.2889656,215.354194 67.0614042,203.310378 C70.5104658,197.629947 77.9055466,186.724775 89.6814123,175.456329 C101.797302,163.846116 118.522402,151.894136 140.359484,144.781536 C147.781883,165.588084 154.498078,189.372892 159.614128,216.146421 C148.836247,220.250536 137.190578,222.531892 124.995059,222.531892 Z M180.189925,205.214511 C175.241853,181.000751 169.021452,159.166576 162.191334,139.68118 C168.525076,138.772706 175.173848,138.260055 182.191706,138.260055 L182.443963,138.260055 L182.460238,138.260055 L182.476512,138.260055 C194.108231,138.260055 206.890218,139.705592 220.752144,142.855316 C215.95345,168.641904 201.017398,190.850397 180.189925,205.214511 Z"></path>
        </g>
    </g>
</svg>