<?xml version="1.0" encoding="UTF-8"?>
<svg width="32px" height="22px" viewBox="0 0 32 22" version="1.1" xmlns="http://www.w3.org/2000/svg" xmlns:xlink="http://www.w3.org/1999/xlink">
    <!-- Generator: Sketch 49.2 (51160) - http://www.bohemiancoding.com/sketch -->
    <title>email</title>
    <desc>Created with Sketch.</desc>
    <defs></defs>
    <g id="Logos/Icons" stroke="none" stroke-width="1" fill="none" fill-rule="evenodd">
        <g id="email" fill="#4A4A4A" fill-rule="nonzero">
            <path d="M16.0401569,12.8530196 L16.0470065,12.8530196 C16.2883137,12.8530196 16.5267974,12.7830065 16.7197386,12.6555294 L16.7720784,12.6219085 C16.7834771,12.6144837 16.7953987,12.6077386 16.8073725,12.5997386 L17.4169412,12.0954248 L31.9664314,0.0889411765 C31.9363137,0.047372549 31.8850196,0.0189281046 31.8303791,0.0189281046 L0.169045752,0.0189281046 C0.129777778,0.0189281046 0.0933333333,0.0331503268 0.0643137255,0.0570457516 L15.2865359,12.6036601 C15.4783791,12.7625098 15.7521046,12.8530196 16.0401569,12.8530196 Z M0,1.72020915 L0,19.5173333 L10.9045752,10.7083922 L0,1.72020915 Z M21.1068235,10.7681569 L32,19.5218824 L32,1.77939869 L21.1068235,10.7681569 Z M17.643451,13.6253595 C17.2092026,13.9816471 16.6412026,14.1780392 16.0447059,14.1780392 C15.4459608,14.1780392 14.8784837,13.9827974 14.4453856,13.628183 L11.9478693,11.568366 L0,21.2186144 L0,21.2493072 C0,21.3409673 0.0785359477,21.4189281 0.171294118,21.4189281 L31.8309542,21.4189281 C31.9219869,21.4189281 31.9999477,21.3409673 31.9999477,21.248732 L31.9999477,21.2202876 L20.0623791,11.6287582 L17.643451,13.6253595 Z" id="Shape"></path>
        </g>
    </g>
</svg>