<?xml version="1.0" encoding="UTF-8"?>
<svg width="250px" height="244px" viewBox="0 0 250 244" version="1.1" xmlns="http://www.w3.org/2000/svg" xmlns:xlink="http://www.w3.org/1999/xlink">
    <!-- Generator: Sketch 49.2 (51160) - http://www.bohemiancoding.com/sketch -->
    <title>GitHub</title>
    <desc>Created with Sketch.</desc>
    <defs></defs>
    <g id="Final-Designs" stroke="none" stroke-width="1" fill="none" fill-rule="evenodd">
        <g id="GitHub" fill="#4A4A4A">
            <path d="M125,0 C55.9326172,0 0,55.87593 0,124.873314 C0,180.139511 35.7910156,226.796278 85.4736328,243.356626 C91.7236328,244.454145 94.0673828,240.69819 94.0673828,237.430021 C94.0673828,234.454524 93.9208984,224.625629 93.9208984,214.162611 C62.5244141,219.942879 54.3945312,206.504365 51.8798828,199.480241 C50.4638672,195.895011 44.3847656,184.797871 39.0625,181.846763 C34.6923828,179.505388 28.4423828,173.72512 38.9160156,173.578784 C48.7548828,173.432448 55.7861328,182.627221 58.1298828,186.383176 C69.3847656,205.260509 87.3535156,199.968027 94.53125,196.675469 C95.6298828,188.553826 98.9013672,183.090618 102.490234,179.968786 C74.6826172,176.846953 45.6054688,166.066874 45.6054688,118.312587 C45.6054688,104.727736 50.4394531,93.48426 58.4228516,84.7528838 C57.1777344,81.631051 52.8076172,68.8266585 59.6679688,51.6565778 C59.6679688,51.6565778 70.1416016,48.3884091 94.0429688,64.4609703 C104.052734,61.6561986 114.672852,60.2416181 125.292969,60.2416181 C135.913086,60.2416181 146.533203,61.6561986 156.542969,64.4609703 C180.444336,48.2176838 190.917969,51.6565778 190.917969,51.6565778 C197.802734,68.8266585 193.408203,81.631051 192.163086,84.7528838 C200.12207,93.48426 204.980469,104.5814 204.980469,118.312587 C204.980469,166.237599 175.756836,176.846953 147.949219,179.968786 C152.490234,183.871077 156.396484,191.358598 156.396484,203.065471 C156.396484,219.772154 156.25,233.18628 156.25,237.405632 C156.25,240.673801 158.59375,244.576092 164.84375,243.332237 C214.208984,226.796278 250,179.968786 250,124.873314 C250,55.87593 194.067383,0 125,0 Z" id="Shape"></path>
        </g>
    </g>
</svg>