<?xml version="1.0" encoding="UTF-8"?>
<svg width="250px" height="250px" viewBox="0 0 250 250" version="1.1" xmlns="http://www.w3.org/2000/svg" xmlns:xlink="http://www.w3.org/1999/xlink">
    <!-- Generator: Sketch 49.2 (51160) - http://www.bohemiancoding.com/sketch -->
    <title>linkedin</title>
    <desc>Created with Sketch.</desc>
    <defs></defs>
    <g id="Final-Designs" stroke="none" stroke-width="1" fill="none" fill-rule="evenodd">
        <g id="linkedin" fill="#4A4A4A">
            <path d="M162.134277,86.3847656 C174.099121,86.3847656 184.283691,90.6679688 192.704102,98.9370117 C199.792969,106.17334 203.189453,116.65625 203.189453,130.535645 L203.189453,210.280273 L173.209961,210.280273 L173.209961,157.412598 C173.209961,143.092773 172.472168,133.491699 171.291992,128.762207 C169.965332,124.040527 167.748047,120.348633 164.499023,117.986328 C161.250488,115.476563 157.263672,114.293945 152.539551,114.293945 C146.483398,114.293945 141.165039,116.215332 136.73584,120.348145 C132.307617,124.483887 129.352539,130.097168 127.583496,137.333496 C126.693848,141.166016 126.250977,149.289062 126.250977,161.846191 L126.250977,210.279785 L95.9814453,210.280273 L95.9814453,89.3383789 L126.250977,89.3383789 L126.250977,101.890137 C133.191895,96.1313477 139.395508,92.1435547 145.008789,89.7817383 C150.617188,87.5673828 156.230957,86.3847656 162.134277,86.3847656 Z M12.5493164,250 L237.593262,250 C244.38623,250 250,244.394531 250,237.596191 L250,12.5517578 C250,5.61083984 244.38623,0 237.593262,0 L12.5493164,0 C5.60839844,0 0,5.61083984 0,12.5517578 L0,237.596191 C0,244.394043 5.60839844,250 12.5493164,250 Z M66.1533203,39.7216797 C71.4672852,39.7216797 76.0483398,41.640625 79.8876953,45.4804688 C83.7265625,49.3203125 85.4960938,54.0444336 85.4960938,59.5097656 C85.4960938,64.8251953 83.7265625,69.4042969 79.8876953,73.2416992 C76.1958008,77.081543 71.6147461,78.8554688 66.3007813,78.8554688 C60.9868164,78.8554688 56.4057617,76.934082 52.5668945,73.0942383 C48.7280273,69.2568359 46.8105469,64.5297852 46.8105469,58.9189453 C46.8105469,53.6035156 48.7275391,49.1728516 52.4194336,45.3325195 C56.2583008,41.640625 60.8349609,39.7216797 66.1533203,39.7216797 Z M50.9448242,89.3383789 L81.2148438,89.3383789 L81.2148438,210.280273 L50.9448242,210.280273 L50.9448242,89.3383789 Z" id="Shape"></path>
        </g>
    </g>
</svg>