<?xml version="1.0" encoding="UTF-8"?>
<svg width="22px" height="22px" viewBox="0 0 22 22" version="1.1" xmlns="http://www.w3.org/2000/svg" xmlns:xlink="http://www.w3.org/1999/xlink">
    <!-- Generator: Sketch 49.2 (51160) - http://www.bohemiancoding.com/sketch -->
    <title>linkedin</title>
    <desc>Created with Sketch.</desc>
    <defs></defs>
    <g id="Logos/Icons" stroke="none" stroke-width="1" fill="none" fill-rule="evenodd">
        <g id="linkedin" fill="#4A4A4A" fill-rule="nonzero">
            <path d="M21.9549281,13.4512967 L21.9549281,21.9210814 L17.2492761,21.9210814 L17.2492761,14.0185518 C17.2492761,12.0333719 16.5686543,10.6785643 14.8653643,10.6785643 C13.5651183,10.6785643 12.7913411,11.5916054 12.4509281,12.4748189 C12.3267889,12.7905643 12.2948353,13.2300406 12.2948353,13.6720202 L12.2948353,21.9210814 L7.58760093,21.9210814 C7.58760093,21.9210814 7.65099768,8.53679007 7.58760093,7.15007768 L12.2943759,7.15007768 L12.2943759,9.24380833 C12.2848306,9.25946777 12.2724269,9.27635226 12.2634432,9.29153233 L12.2943759,9.29153233 L12.2943759,9.24380833 C12.9197169,8.2387814 14.0365104,6.80306668 16.5362413,6.80306668 C19.633239,6.80301342 21.9549281,8.91421447 21.9549281,13.4512967 Z M2.66363341,0.0297209725 C1.05329466,0.0297209725 0,1.13190033 0,2.58130374 C0,3.99912196 1.02282135,5.13475073 2.60115545,5.13475073 L2.63259861,5.13475073 C4.27412529,5.13475073 5.29500696,3.99933501 5.29500696,2.58130374 C5.26407425,1.13190033 4.27412529,0.0297209725 2.66363341,0.0297209725 Z M0.279568445,21.9210814 L4.98501624,21.9210814 L4.98501624,7.15007768 L0.279568445,7.15007768 L0.279568445,21.9210814 Z" id="LinkedIn"></path>
        </g>
    </g>
</svg>